<?xml version="1.0" encoding="UTF-8" standalone="no"?>
<!-- Created by diasvg.py -->
<svg width="67.193cm" height="52.219cm" viewBox="14.290 3.750 67.193 52.219"
 xmlns="http://www.w3.org/2000/svg"
 xmlns:xlink="http://www.w3.org/1999/xlink">
<!-- Layer: Background -->
<g id="Background">
</g>
<!-- Layer: Background -->
<g id="Background">
<!-- Flowchart - Box -->
<rect x="15.344" y="9.050" width="3.812" height="1.900" fill="#FFFFFF" stroke="#000000" stroke-width="0.100"  rx="0.000" />
<!-- Flowchart - Box -->
<rect x="14.340" y="14.830" width="2.700" height="1.900" fill="#FFFFFF" stroke="#000000" stroke-width="0.100"  rx="0.000" />
<!-- Flowchart - Box -->
<rect x="17.724" y="14.730" width="2.890" height="1.900" fill="#FFFFFF" stroke="#000000" stroke-width="0.100"  rx="0.000" />
<!-- Standard - PolyLine -->
<polyline fill="none" stroke="#000000" stroke-width="0.100"  points="16.297,10.950 16.312,14.343 "/>
<polygon fill="#000000" stroke="#000000" stroke-width="0.100"  points="16.314,14.718 16.062,14.219 16.312,14.343 16.562,14.217 "/>
<!-- Standard - PolyLine -->
<polyline fill="none" stroke="#000000" stroke-width="0.100"  points="19.156,10.950 19.167,14.243 "/>
<polygon fill="#000000" stroke="#000000" stroke-width="0.100"  points="19.168,14.618 18.917,14.119 19.167,14.243 19.417,14.118 "/>
<!-- UML - Class -->
<rect x="15.300" y="3.800" width="5.120" height="1.400" fill="#FFFFFF" stroke="#000000" stroke-width="0.100" />
<rect x="15.300" y="5.200" width="5.120" height="1.800" fill="#FFFFFF" stroke="#000000" stroke-width="0.100" />
<rect x="15.300" y="7.000" width="5.120" height="0.400" fill="#FFFFFF" stroke="#000000" stroke-width="0.100" />
<!-- Flowchart - Display -->
<path stroke="#000000" fill="#FFFFFF" stroke-width="0.100"  d="M 28.889,4.800 L 35.156,4.800 C 36.096,5.200 36.410,5.400 36.410,5.800 C 36.410,6.200 36.096,6.400 35.156,6.800 L 28.889,6.800 L 27.635,5.800 L 28.889,4.800 z"/>
<!-- Flowchart - Box -->
<rect x="29.545" y="8.320" width="4.953" height="1.900" fill="#FFFFFF" stroke="#000000" stroke-width="0.100"  rx="0.000" />
<!-- Flowchart - Box -->
<rect x="30.310" y="12.191" width="3.422" height="1.900" fill="#FFFFFF" stroke="#000000" stroke-width="0.100"  rx="0.000" />
<!-- Flowchart - Box -->
<rect x="28.844" y="15.372" width="6.355" height="1.900" fill="#FFFFFF" stroke="#000000" stroke-width="0.100"  rx="0.000" />
<!-- Flowchart - Diamond -->
<polygon fill="#FFFFFF" stroke="#000000" stroke-width="0.100"  points="32.022,20.617 36.155,22.684 32.022,24.750 27.888,22.684 "/>
<!-- Flowchart - Parallelogram -->
<polygon fill="#FFFFFF" stroke="#000000" stroke-width="0.100"  points="21.199,26.591 29.705,26.591 28.977,28.591 20.471,28.591 "/>
<!-- Flowchart - Box -->
<rect x="37.061" y="26.064" width="6.023" height="1.900" fill="#FFFFFF" stroke="#000000" stroke-width="0.100"  rx="0.000" />
<!-- Flowchart - Display -->
<path stroke="#000000" fill="#FFFFFF" stroke-width="0.100"  d="M 30.967,43.802 L 33.077,43.802 C 33.394,44.202 33.499,44.402 33.499,44.802 C 33.499,45.202 33.394,45.402 33.077,45.802 L 30.967,45.802 L 30.545,44.802 L 30.967,43.802 z"/>
<!-- Flowchart - Diamond -->
<polygon fill="#FFFFFF" stroke="#000000" stroke-width="0.100"  points="40.072,28.119 44.301,30.233 40.072,32.347 35.844,30.233 "/>
<!-- Flowchart - Box -->
<rect x="40.919" y="32.493" width="6.355" height="1.900" fill="#FFFFFF" stroke="#000000" stroke-width="0.100"  rx="0.000" />
<!-- Flowchart - Parallelogram -->
<polygon fill="#FFFFFF" stroke="#000000" stroke-width="0.100"  points="31.866,35.394 41.127,35.394 40.399,37.394 31.138,37.394 "/>
<!-- Flowchart - Box -->
<rect x="22.675" y="29.896" width="4.825" height="1.900" fill="#FFFFFF" stroke="#000000" stroke-width="0.100"  rx="0.000" />
<!-- Flowchart - Box -->
<rect x="33.720" y="32.493" width="4.825" height="1.900" fill="#FFFFFF" stroke="#000000" stroke-width="0.100"  rx="0.000" />
<!-- Standard - Line -->
<line x1="32.023" y1="6.800" x2="32.022" y2="7.834" stroke="#000000" stroke-width="0.100" />
<polygon fill="#000000" stroke="#000000" stroke-width="0.100"  points="32.022,8.209 31.772,7.708 32.022,7.834 32.272,7.709 "/>
<!-- Standard - Line -->
<line x1="32.022" y1="10.220" x2="32.022" y2="11.704" stroke="#000000" stroke-width="0.100" />
<polygon fill="#000000" stroke="#000000" stroke-width="0.100"  points="32.022,12.079 31.772,11.579 32.022,11.704 32.272,11.579 "/>
<!-- Standard - Line -->
<line x1="32.022" y1="14.091" x2="32.022" y2="14.885" stroke="#000000" stroke-width="0.100" />
<polygon fill="#000000" stroke="#000000" stroke-width="0.100"  points="32.022,15.260 31.772,14.760 32.022,14.885 32.272,14.760 "/>
<!-- Standard - Line -->
<line x1="32.022" y1="17.272" x2="32.022" y2="20.257" stroke="#000000" stroke-width="0.100" />
<polygon fill="#000000" stroke="#000000" stroke-width="0.100"  points="32.022,20.632 31.772,20.132 32.022,20.257 32.272,20.132 "/>
<!-- Standard - PolyLine -->
<polyline fill="none" stroke="#000000" stroke-width="0.100"  points="28.142,22.684 25.592,22.521 25.469,26.104 "/>
<polygon fill="#000000" stroke="#000000" stroke-width="0.100"  points="25.456,26.479 25.223,25.971 25.469,26.104 25.723,25.988 "/>
<!-- Standard - PolyLine -->
<polyline fill="none" stroke="#000000" stroke-width="0.100"  points="35.901,22.684 39.913,22.702 40.049,25.578 "/>
<polygon fill="#000000" stroke="#000000" stroke-width="0.100"  points="40.067,25.953 39.794,25.465 40.049,25.578 40.293,25.441 "/>
<!-- Standard - Line -->
<line x1="40.072" y1="27.964" x2="40.072" y2="27.767" stroke="#000000" stroke-width="0.100" />
<polygon fill="#000000" stroke="#000000" stroke-width="0.100"  points="40.072,28.142 39.822,27.642 40.072,27.767 40.322,27.642 "/>
<!-- Standard - PolyLine -->
<polyline fill="none" stroke="#000000" stroke-width="0.100"  points="36.114,30.233 36.174,30.073 36.141,32.006 "/>
<polygon fill="#000000" stroke="#000000" stroke-width="0.100"  points="36.134,32.381 35.893,31.877 36.141,32.006 36.393,31.886 "/>
<!-- Standard - PolyLine -->
<polyline fill="none" stroke="#000000" stroke-width="0.100"  points="44.031,30.233 44.141,30.181 44.106,32.006 "/>
<polygon fill="#000000" stroke="#000000" stroke-width="0.100"  points="44.098,32.381 43.858,31.877 44.106,32.006 44.358,31.886 "/>
<!-- Standard - Line -->
<line x1="36.132" y1="34.393" x2="34.850" y2="35.147" stroke="#000000" stroke-width="0.100" />
<polygon fill="#000000" stroke="#000000" stroke-width="0.100"  points="34.526,35.337 34.831,34.868 34.850,35.147 35.084,35.299 "/>
<!-- Flowchart - Ellipse -->
<ellipse cx="40.100" cy="38.919" rx="1.707" ry="0.853" fill="#FFFFFF" stroke="#000000"  stroke-width="0.100" />
<!-- Standard - PolyLine -->
<polyline fill="none" stroke="#000000" stroke-width="0.100"  points="44.096,34.393 44.141,38.907 42.294,38.917 "/>
<polygon fill="#000000" stroke="#000000" stroke-width="0.100"  points="41.919,38.919 42.418,38.666 42.294,38.917 42.420,39.166 "/>
<!-- Standard - PolyLine -->
<polyline fill="none" stroke="#000000" stroke-width="0.100"  points="35.768,37.394 35.632,38.961 37.907,38.927 "/>
<polygon fill="#000000" stroke="#000000" stroke-width="0.100"  points="38.282,38.921 37.786,39.179 37.907,38.927 37.778,38.679 "/>
<!-- Standard - PolyLine -->
<polyline fill="none" stroke="#000000" stroke-width="0.100"  points="40.100,39.773 39.968,41.400 34.215,41.461 "/>
<polygon fill="#000000" stroke="#000000" stroke-width="0.100"  points="33.840,41.465 34.337,41.210 34.215,41.461 34.343,41.710 "/>
<!-- Flowchart - Ellipse -->
<ellipse cx="32.021" cy="41.467" rx="1.707" ry="0.853" fill="#FFFFFF" stroke="#000000"  stroke-width="0.100" />
<!-- Standard - Line -->
<line x1="24.724" y1="28.591" x2="24.232" y2="29.471" stroke="#000000" stroke-width="0.100" />
<polygon fill="#000000" stroke="#000000" stroke-width="0.100"  points="24.049,29.799 24.075,29.240 24.232,29.471 24.511,29.484 "/>
<!-- Standard - PolyLine -->
<polyline fill="none" stroke="#000000" stroke-width="0.100"  points="25.088,31.797 24.749,41.069 29.829,41.432 "/>
<polygon fill="#000000" stroke="#000000" stroke-width="0.100"  points="30.203,41.459 29.687,41.672 29.829,41.432 29.722,41.174 "/>
<!-- Standard - Line -->
<line x1="32.022" y1="42.320" x2="32.184" y2="43.272" stroke="#000000" stroke-width="0.100" />
<polygon fill="#000000" stroke="#000000" stroke-width="0.100"  points="32.247,43.641 31.916,43.191 32.184,43.272 32.409,43.107 "/>
<!-- Standard - Text -->
<!-- Standard - Text -->
<!-- Standard - Text -->
<!-- Standard - Text -->
<!-- Standard - Text -->
<!-- Standard - Text -->
<!-- Standard - Text -->
<!-- Flowchart - Display -->
<path stroke="#000000" fill="#FFFFFF" stroke-width="0.100"  d="M 57.926,3.895 L 63.934,3.895 C 64.835,4.295 65.135,4.495 65.135,4.895 C 65.135,5.295 64.835,5.495 63.934,5.895 L 57.926,5.895 L 56.725,4.895 L 57.926,3.895 z"/>
<!-- Flowchart - Box -->
<rect x="59.257" y="8.274" width="3.653" height="1.900" fill="#FFFFFF" stroke="#000000" stroke-width="0.100"  rx="0.000" />
<!-- Flowchart - Box -->
<rect x="58.684" y="12.030" width="4.953" height="1.900" fill="#FFFFFF" stroke="#000000" stroke-width="0.100"  rx="0.000" />
<!-- Flowchart - Box -->
<rect x="57.983" y="15.402" width="6.355" height="1.900" fill="#FFFFFF" stroke="#000000" stroke-width="0.100"  rx="0.000" />
<!-- Flowchart - Box -->
<rect x="57.400" y="19.158" width="7.827" height="1.900" fill="#FFFFFF" stroke="#000000" stroke-width="0.100"  rx="0.000" />
<!-- Flowchart - Diamond -->
<polygon fill="#FFFFFF" stroke="#000000" stroke-width="0.100"  points="61.390,22.687 66.196,25.090 61.390,27.493 56.584,25.090 "/>
<!-- Flowchart - Box -->
<rect x="50.406" y="27.436" width="8.017" height="1.900" fill="#FFFFFF" stroke="#000000" stroke-width="0.100"  rx="0.000" />
<!-- Flowchart - Ellipse -->
<ellipse cx="60.624" cy="49.617" rx="1.707" ry="0.853" fill="#FFFFFF" stroke="#000000"  stroke-width="0.100" />
<!-- Flowchart - Display -->
<path stroke="#000000" fill="#FFFFFF" stroke-width="0.100"  d="M 59.909,53.869 L 61.338,53.869 C 61.552,54.269 61.624,54.469 61.624,54.869 C 61.624,55.269 61.552,55.469 61.338,55.869 L 59.909,55.869 L 59.624,54.869 L 59.909,53.869 z"/>
<!-- Standard - Line -->
<line x1="61.806" y1="5.946" x2="61.228" y2="7.809" stroke="#000000" stroke-width="0.100" />
<polygon fill="#000000" stroke="#000000" stroke-width="0.100"  points="61.117,8.167 61.026,7.616 61.228,7.809 61.504,7.764 "/>
<!-- Standard - Line -->
<line x1="61.084" y1="10.174" x2="61.140" y2="11.544" stroke="#000000" stroke-width="0.100" />
<polygon fill="#000000" stroke="#000000" stroke-width="0.100"  points="61.155,11.918 60.885,11.429 61.140,11.544 61.385,11.408 "/>
<!-- Standard - Line -->
<line x1="61.160" y1="13.930" x2="61.160" y2="14.916" stroke="#000000" stroke-width="0.100" />
<polygon fill="#000000" stroke="#000000" stroke-width="0.100"  points="61.160,15.291 60.910,14.791 61.160,14.916 61.410,14.791 "/>
<!-- Standard - Line -->
<line x1="61.160" y1="17.302" x2="61.273" y2="18.673" stroke="#000000" stroke-width="0.100" />
<polygon fill="#000000" stroke="#000000" stroke-width="0.100"  points="61.304,19.047 61.014,18.569 61.273,18.673 61.512,18.528 "/>
<!-- Standard - Line -->
<line x1="61.313" y1="21.058" x2="61.370" y2="22.388" stroke="#000000" stroke-width="0.100" />
<polygon fill="#000000" stroke="#000000" stroke-width="0.100"  points="61.385,22.762 61.115,22.273 61.370,22.388 61.614,22.252 "/>
<!-- Standard - PolyLine -->
<polyline fill="none" stroke="#000000" stroke-width="0.100"  points="56.958,25.090 54.412,25.127 54.414,26.949 "/>
<polygon fill="#000000" stroke="#000000" stroke-width="0.100"  points="54.415,27.324 54.164,26.825 54.414,26.949 54.664,26.824 "/>
<!-- Standard - PolyLine -->
<polyline fill="none" stroke="#000000" stroke-width="0.100"  points="54.415,29.336 54.359,30.705 "/>
<polygon fill="#000000" stroke="#000000" stroke-width="0.100"  points="54.343,31.080 54.114,30.570 54.359,30.705 54.614,30.591 "/>
<!-- Standard - PolyLine -->
<polyline fill="none" stroke="#000000" stroke-width="0.100"  points="65.822,25.090 68.285,25.203 68.361,49.577 62.817,49.614 "/>
<polygon fill="#000000" stroke="#000000" stroke-width="0.100"  points="62.442,49.616 62.940,49.363 62.817,49.614 62.944,49.863 "/>
<!-- Standard - Line -->
<line x1="60.624" y1="50.471" x2="60.624" y2="53.383" stroke="#000000" stroke-width="0.100" />
<polygon fill="#000000" stroke="#000000" stroke-width="0.100"  points="60.624,53.758 60.374,53.258 60.624,53.383 60.874,53.258 "/>
<!-- Standard - Text -->
<!-- Standard - Text -->
<!-- Standard - Text -->
<!-- Standard - Text -->
<!-- Flowchart - Diamond -->
<polygon fill="#FFFFFF" stroke="#000000" stroke-width="0.100"  points="54.415,34.440 59.322,36.894 54.415,39.347 49.508,36.894 "/>
<!-- Flowchart - Box -->
<rect x="50.701" y="31.192" width="7.275" height="1.900" fill="#FFFFFF" stroke="#000000" stroke-width="0.100"  rx="0.000" />
<!-- Flowchart - Ellipse -->
<ellipse cx="55.565" cy="46.475" rx="1.707" ry="0.853" fill="#FFFFFF" stroke="#000000"  stroke-width="0.100" />
<!-- Standard - PolyLine -->
<polyline fill="none" stroke="#000000" stroke-width="0.100"  points="49.883,36.894 49.046,36.854 48.988,38.830 "/>
<polygon fill="#000000" stroke="#000000" stroke-width="0.100"  points="48.977,39.205 48.741,38.697 48.988,38.830 49.241,38.712 "/>
<!-- Standard - PolyLine -->
<polyline fill="none" stroke="#000000" stroke-width="0.100"  points="49.663,44.589 49.660,45.975 53.502,46.129 "/>
<polygon fill="#000000" stroke="#000000" stroke-width="0.100"  points="53.876,46.144 53.367,46.373 53.502,46.129 53.387,45.874 "/>
<!-- Standard - PolyLine -->
<polyline fill="none" stroke="#000000" stroke-width="0.100"  points="58.947,36.894 61.233,36.930 61.157,46.128 57.628,46.146 "/>
<polygon fill="#000000" stroke="#000000" stroke-width="0.100"  points="57.254,46.148 57.752,45.895 57.628,46.146 57.755,46.395 "/>
<!-- Standard - PolyLine -->
<polyline fill="none" stroke="#000000" stroke-width="0.100"  points="55.565,47.328 55.561,50.037 58.560,49.957 "/>
<polygon fill="#000000" stroke="#000000" stroke-width="0.100"  points="58.935,49.947 58.442,50.210 58.560,49.957 58.429,49.710 "/>
<!-- Standard - Text -->
<!-- Standard - Text -->
<!-- Flowchart - Box -->
<rect x="46.652" y="42.689" width="6.023" height="1.900" fill="#FFFFFF" stroke="#000000" stroke-width="0.100"  rx="0.000" />
<!-- Standard - Line -->
<line x1="48.973" y1="41.216" x2="49.457" y2="42.248" stroke="#000000" stroke-width="0.100" />
<polygon fill="#000000" stroke="#000000" stroke-width="0.100"  points="49.616,42.588 49.177,42.241 49.457,42.248 49.630,42.029 "/>
<!-- Standard - Text -->
<!-- Flowchart - Box -->
<rect x="45.146" y="39.316" width="7.655" height="1.900" fill="#FFFFFF" stroke="#000000" stroke-width="0.100"  rx="0.000" />
<!-- Standard - Line -->
<line x1="54.339" y1="33.092" x2="54.391" y2="34.142" stroke="#000000" stroke-width="0.100" />
<polygon fill="#000000" stroke="#000000" stroke-width="0.100"  points="54.410,34.516 54.135,34.029 54.391,34.142 54.634,34.004 "/>
<!-- Standard - Text -->
<!-- Standard - Text -->
<!-- Standard - Text -->
<!-- Standard - Text -->
<!-- Flowchart - Display -->
<path stroke="#000000" fill="#FFFFFF" stroke-width="0.100"  d="M 74.677,4.049 L 78.609,4.049 C 79.199,4.449 79.396,4.649 79.396,5.049 C 79.396,5.449 79.199,5.649 78.609,6.049 L 74.677,6.049 L 73.890,5.049 L 74.677,4.049 z"/>
<!-- Flowchart - Box -->
<rect x="75.633" y="8.198" width="2.632" height="1.900" fill="#FFFFFF" stroke="#000000" stroke-width="0.100"  rx="0.000" />
<!-- Flowchart - Box -->
<rect x="72.466" y="13.180" width="8.968" height="1.900" fill="#FFFFFF" stroke="#000000" stroke-width="0.100"  rx="0.000" />
<!-- Flowchart - Display -->
<path stroke="#000000" fill="#FFFFFF" stroke-width="0.100"  d="M 76.110,18.229 L 77.942,18.229 C 78.217,18.628 78.309,18.829 78.309,19.229 C 78.309,19.628 78.217,19.829 77.942,20.229 L 76.110,20.229 L 75.743,19.229 L 76.110,18.229 z"/>
<!-- Standard - Line -->
<line x1="76.643" y1="6.049" x2="76.881" y2="7.716" stroke="#000000" stroke-width="0.100" />
<polygon fill="#000000" stroke="#000000" stroke-width="0.100"  points="76.934,8.087 76.615,7.627 76.881,7.716 77.110,7.557 "/>
<!-- Standard - Line -->
<line x1="76.949" y1="10.098" x2="76.949" y2="12.693" stroke="#000000" stroke-width="0.100" />
<polygon fill="#000000" stroke="#000000" stroke-width="0.100"  points="76.949,13.068 76.699,12.568 76.949,12.693 77.199,12.568 "/>
<!-- Standard - Line -->
<line x1="76.949" y1="15.080" x2="77.014" y2="17.742" stroke="#000000" stroke-width="0.100" />
<polygon fill="#000000" stroke="#000000" stroke-width="0.100"  points="77.023,18.117 76.761,17.623 77.014,17.742 77.261,17.611 "/>
<!-- Standard - Text -->
<!-- Standard - Text -->
</g>
</svg>