<?xml version="1.0" encoding="UTF-8" standalone="no"?>
<!-- Created by diasvg.py -->
<svg width="26.812cm" height="15.595cm" viewBox="8.605 4.145 26.812 15.595"
 xmlns="http://www.w3.org/2000/svg"
 xmlns:xlink="http://www.w3.org/1999/xlink">
<!-- Layer: Background -->
<g id="Background">
<!-- UML - Class -->
<rect x="8.655" y="4.590" width="3.815" height="1.400" fill="#FFFFFF" stroke="#000000" stroke-width="0.100" />
<rect x="8.655" y="5.990" width="3.815" height="0.400" fill="#FFFFFF" stroke="#000000" stroke-width="0.100" />
<rect x="8.655" y="6.390" width="3.815" height="0.400" fill="#FFFFFF" stroke="#000000" stroke-width="0.100" />
<!-- UML - Class -->
<rect x="15.855" y="12.190" width="8.215" height="1.400" fill="#FFFFFF" stroke="#000000" stroke-width="0.100" />
<rect x="15.855" y="13.590" width="8.215" height="0.400" fill="#FFFFFF" stroke="#000000" stroke-width="0.100" />
<rect x="15.855" y="13.990" width="8.215" height="1.000" fill="#FFFFFF" stroke="#000000" stroke-width="0.100" />
<!-- UML - Class -->
<rect x="17.705" y="4.390" width="4.590" height="1.400" fill="#FFFFFF" stroke="#000000" stroke-width="0.100" />
<rect x="17.705" y="5.790" width="4.590" height="0.400" fill="#FFFFFF" stroke="#000000" stroke-width="0.100" />
<rect x="17.705" y="6.190" width="4.590" height="1.000" fill="#FFFFFF" stroke="#000000" stroke-width="0.100" />
<!-- UML - Class -->
<rect x="27.005" y="12.190" width="8.363" height="1.400" fill="#FFFFFF" stroke="#000000" stroke-width="0.100" />
<rect x="27.005" y="13.590" width="8.363" height="0.400" fill="#FFFFFF" stroke="#000000" stroke-width="0.100" />
<rect x="27.005" y="13.990" width="8.363" height="1.000" fill="#FFFFFF" stroke="#000000" stroke-width="0.100" />
<!-- Standard - Line -->
<line x1="12.519" y1="5.711" x2="17.433" y2="5.763" stroke="#000000" stroke-width="0.100" />
<polyline fill="none" stroke="#000000" stroke-width="0.100"  points="17.042,6.009 17.545,5.764 17.048,5.509 "/>
<!-- Standard - Line -->
<line x1="19.962" y1="12.190" x2="19.995" y2="7.802" stroke="#000000" stroke-width="0.100" />
<polygon fill="#FFFFFF" stroke="#000000" stroke-width="0.100"  points="20.245,7.804 19.999,7.302 19.745,7.800 "/>
<!-- Standard - Line -->
<line x1="24.070" y1="12.890" x2="26.781" y2="12.890" stroke="#000000" stroke-width="0.100" />
<polyline fill="none" stroke="#000000" stroke-width="0.100"  points="26.393,13.140 26.893,12.890 26.393,12.640 "/>
<!-- UML - Note -->
<polygon fill="#FFFFFF" stroke="#000000" stroke-width="0.100"  points="19.155,17.990 29.080,17.990 29.680,18.590 29.680,19.690 19.155,19.690 "/>
<polyline fill="none" stroke="#000000" stroke-width="0.050"  points="29.080,17.990 29.080,18.590 29.680,18.590 "/>
<!-- Standard - Line -->
<line x1="19.205" y1="14.890" x2="19.155" y2="17.990" stroke="#000000" stroke-width="0.100" stroke-dasharray="0.10,0.10"/>
<!-- Standard - Text -->
<!-- Standard - Text -->
<!-- Standard - Text -->
</g>
</svg>