<?xml version="1.0" encoding="UTF-8" standalone="no"?>
<!-- Created by diasvg.py -->
<svg width="32.388cm" height="44.603cm" viewBox="21.712 15.150 32.388 44.603"
 xmlns="http://www.w3.org/2000/svg"
 xmlns:xlink="http://www.w3.org/1999/xlink">
<!-- Layer: Background -->
<g id="Background">
</g>
<!-- Layer: Background -->
<g id="Background">
<!-- Flowchart - Ellipse -->
<ellipse cx="50.650" cy="16.600" rx="1.936" ry="0.968" fill="#FFFFFF" stroke="#000000"  stroke-width="0.100" />
<!-- Flowchart - Ellipse -->
<ellipse cx="48.628" cy="58.750" rx="1.906" ry="0.953" fill="#FFFFFF" stroke="#000000"  stroke-width="0.100" />
<!-- UML - Class -->
<rect x="33.950" y="15.200" width="7.815" height="1.400" fill="#FFFFFF" stroke="#000000" stroke-width="0.100" />
<rect x="33.950" y="16.600" width="7.815" height="3.400" fill="#FFFFFF" stroke="#000000" stroke-width="0.100" />
<rect x="33.950" y="20.000" width="7.815" height="1.000" fill="#FFFFFF" stroke="#000000" stroke-width="0.100" />
<!-- Flowchart - Box -->
<rect x="21.762" y="28.100" width="2.775" height="1.900" fill="#FFFFFF" stroke="#000000" stroke-width="0.100"  rx="0.000" />
<!-- Standard - Line -->
<line x1="23.150" y1="30.000" x2="23.150" y2="32.150" stroke="#000000" stroke-width="0.100" />
<!-- Standard - Text -->
<!-- Flowchart - Box -->
<rect x="27.574" y="28.100" width="3.753" height="1.900" fill="#FFFFFF" stroke="#000000" stroke-width="0.100"  rx="0.000" />
<!-- Flowchart - Box -->
<rect x="28.025" y="32.150" width="2.850" height="1.900" fill="#FFFFFF" stroke="#000000" stroke-width="0.100"  rx="0.000" />
<!-- Standard - Line -->
<line x1="29.450" y1="30.050" x2="29.450" y2="32.150" stroke="#000000" stroke-width="0.100" />
<!-- Flowchart - Box -->
<rect x="32.846" y="28.100" width="5.508" height="1.900" fill="#FFFFFF" stroke="#000000" stroke-width="0.100"  rx="0.000" />
<!-- Standard - Text -->
<!-- Flowchart - Box -->
<rect x="34.187" y="32.150" width="2.825" height="1.900" fill="#FFFFFF" stroke="#000000" stroke-width="0.100"  rx="0.000" />
<!-- Standard - Line -->
<line x1="35.600" y1="30.050" x2="35.600" y2="32.150" stroke="#000000" stroke-width="0.100" />
<!-- Standard - Text -->
<!-- Standard - Text -->
<!-- Flowchart - Parallelogram -->
<polygon fill="#FFFFFF" stroke="#000000" stroke-width="0.100"  points="47.867,20.100 53.338,20.100 52.610,22.100 47.139,22.100 "/>
<!-- Standard - Line -->
<line x1="50.636" y1="17.615" x2="50.609" y2="19.613" stroke="#000000" stroke-width="0.100" />
<polygon fill="#000000" stroke="#000000" stroke-width="0.100"  points="50.604,19.988 50.361,19.485 50.609,19.613 50.861,19.492 "/>
<!-- Flowchart - Parallelogram -->
<polygon fill="#FFFFFF" stroke="#000000" stroke-width="0.100"  points="47.790,24.400 52.016,24.400 51.288,26.400 47.062,26.400 "/>
<!-- Flowchart - Parallelogram -->
<polygon fill="#FFFFFF" stroke="#000000" stroke-width="0.100"  points="47.053,28.800 51.352,28.800 50.624,30.800 46.325,30.800 "/>
<!-- Flowchart - Parallelogram -->
<polygon fill="#FFFFFF" stroke="#000000" stroke-width="0.100"  points="45.774,52.900 52.410,52.900 51.682,54.900 45.046,54.900 "/>
<!-- Standard - Line -->
<line x1="49.875" y1="22.100" x2="49.897" y2="23.913" stroke="#000000" stroke-width="0.100" />
<polygon fill="#000000" stroke="#000000" stroke-width="0.100"  points="49.901,24.288 49.645,23.791 49.897,23.913 50.145,23.785 "/>
<!-- Standard - Text -->
<!-- Standard - Line -->
<line x1="49.175" y1="26.400" x2="49.197" y2="28.313" stroke="#000000" stroke-width="0.100" />
<polygon fill="#000000" stroke="#000000" stroke-width="0.100"  points="49.201,28.688 48.946,28.191 49.197,28.313 49.446,28.185 "/>
<!-- Flowchart - Ellipse -->
<ellipse cx="49.078" cy="38.150" rx="1.707" ry="0.853" fill="#FFFFFF" stroke="#000000"  stroke-width="0.100" />
<!-- Flowchart - Diamond -->
<polygon fill="#FFFFFF" stroke="#000000" stroke-width="0.100"  points="49.078,41.126 52.026,42.600 49.078,44.074 46.130,42.600 "/>
<!-- Flowchart - Box -->
<rect x="47.556" y="32.850" width="3.045" height="1.900" fill="#FFFFFF" stroke="#000000" stroke-width="0.100"  rx="0.000" />
<!-- Standard - Line -->
<line x1="48.921" y1="30.850" x2="49.040" y2="32.365" stroke="#000000" stroke-width="0.100" />
<polygon fill="#000000" stroke="#000000" stroke-width="0.100"  points="49.069,32.739 48.781,32.260 49.040,32.365 49.280,32.221 "/>
<!-- Standard - Line -->
<line x1="49.078" y1="34.750" x2="49.078" y2="36.810" stroke="#000000" stroke-width="0.100" />
<polygon fill="#000000" stroke="#000000" stroke-width="0.100"  points="49.078,37.185 48.828,36.685 49.078,36.810 49.328,36.685 "/>
<!-- Standard - Line -->
<line x1="49.078" y1="39.003" x2="49.078" y2="40.729" stroke="#000000" stroke-width="0.100" />
<polygon fill="#000000" stroke="#000000" stroke-width="0.100"  points="49.078,41.104 48.828,40.604 49.078,40.729 49.328,40.604 "/>
<!-- Standard - PolyLine -->
<polyline fill="none" stroke="#000000" stroke-width="0.100"  points="46.310,42.600 43.700,42.550 43.670,45.113 "/>
<polygon fill="#000000" stroke="#000000" stroke-width="0.100"  points="43.665,45.488 43.421,44.985 43.670,45.113 43.921,44.991 "/>
<!-- Flowchart - Ellipse -->
<ellipse cx="49.078" cy="50.050" rx="1.707" ry="0.853" fill="#FFFFFF" stroke="#000000"  stroke-width="0.100" />
<!-- Standard - PolyLine -->
<polyline fill="none" stroke="#000000" stroke-width="0.100"  points="42.936,47.600 42.900,50.050 46.885,50.050 "/>
<polygon fill="#000000" stroke="#000000" stroke-width="0.100"  points="47.260,50.050 46.760,50.300 46.885,50.050 46.760,49.800 "/>
<!-- Standard - Text -->
<!-- Standard - PolyLine -->
<polyline fill="none" stroke="#000000" stroke-width="0.100"  points="51.846,42.600 54.050,42.650 54.050,50.000 51.272,50.043 "/>
<polygon fill="#000000" stroke="#000000" stroke-width="0.100"  points="50.897,50.048 51.393,49.791 51.272,50.043 51.400,50.291 "/>
<!-- Standard - Text -->
<!-- Standard - Text -->
<!-- Flowchart - Parallelogram -->
<polygon fill="#FFFFFF" stroke="#000000" stroke-width="0.100"  points="39.995,45.600 47.333,45.600 46.605,47.600 39.267,47.600 "/>
<!-- Standard - Text -->
<!-- Standard - Text -->
<!-- Standard - Line -->
<line x1="49.078" y1="50.903" x2="49.089" y2="52.413" stroke="#000000" stroke-width="0.100" />
<polygon fill="#000000" stroke="#000000" stroke-width="0.100"  points="49.091,52.788 48.838,52.290 49.089,52.413 49.338,52.286 "/>
<!-- Standard - Line -->
<line x1="48.701" y1="54.949" x2="48.641" y2="57.326" stroke="#000000" stroke-width="0.100" />
<polygon fill="#000000" stroke="#000000" stroke-width="0.100"  points="48.631,57.701 48.394,57.195 48.641,57.326 48.894,57.207 "/>
<!-- Standard - Text -->
<!-- Standard - Text -->
<!-- Flowchart - Box -->
<rect x="22.150" y="32.150" width="2.000" height="1.900" fill="#FFFFFF" stroke="#000000" stroke-width="0.100"  rx="0.000" />
<!-- Standard - Text -->
</g>
</svg>