<?xml version="1.0" encoding="UTF-8" standalone="no"?>
<!-- Created by diasvg.py -->
<svg width="35.147cm" height="16.900cm" viewBox="3.700 7.950 35.147 16.900"
 xmlns="http://www.w3.org/2000/svg"
 xmlns:xlink="http://www.w3.org/1999/xlink">
<!-- Layer: Background -->
<g id="Background">
</g>
<!-- Layer: Background -->
<g id="Background">
<!-- UML - Class -->
<rect x="6.000" y="8.000" width="3.133" height="1.400" fill="#FFFFFF" stroke="#000000" stroke-width="0.100" />
<rect x="6.000" y="9.400" width="3.133" height="0.400" fill="#FFFFFF" stroke="#000000" stroke-width="0.100" />
<rect x="6.000" y="9.800" width="3.133" height="0.400" fill="#FFFFFF" stroke="#000000" stroke-width="0.100" />
<!-- UML - Class -->
<rect x="4.900" y="15.100" width="5.737" height="1.400" fill="#FFFFFF" stroke="#000000" stroke-width="0.100" />
<rect x="4.900" y="16.500" width="5.737" height="0.400" fill="#FFFFFF" stroke="#000000" stroke-width="0.100" />
<rect x="4.900" y="16.900" width="5.737" height="1.000" fill="#FFFFFF" stroke="#000000" stroke-width="0.100" />
<!-- UML - Class -->
<rect x="3.750" y="22.550" width="9.172" height="1.400" fill="#FFFFFF" stroke="#000000" stroke-width="0.100" />
<rect x="3.750" y="23.950" width="9.172" height="0.400" fill="#FFFFFF" stroke="#000000" stroke-width="0.100" />
<rect x="3.750" y="24.350" width="9.172" height="0.400" fill="#FFFFFF" stroke="#000000" stroke-width="0.100" />
<!-- UML - Class -->
<rect x="15.500" y="22.000" width="10.957" height="1.400" fill="#FFFFFF" stroke="#000000" stroke-width="0.100" />
<rect x="15.500" y="23.400" width="10.957" height="0.400" fill="#FFFFFF" stroke="#000000" stroke-width="0.100" />
<rect x="15.500" y="23.800" width="10.957" height="1.000" fill="#FFFFFF" stroke="#000000" stroke-width="0.100" />
<!-- UML - Class -->
<rect x="27.850" y="21.900" width="10.947" height="1.400" fill="#FFFFFF" stroke="#000000" stroke-width="0.100" />
<rect x="27.850" y="23.300" width="10.947" height="0.400" fill="#FFFFFF" stroke="#000000" stroke-width="0.100" />
<rect x="27.850" y="23.700" width="10.947" height="1.000" fill="#FFFFFF" stroke="#000000" stroke-width="0.100" />
<!-- UML - Note -->
<polygon fill="#FFFFFF" stroke="#000000" stroke-width="0.100"  points="8.050,19.050 18.745,19.050 19.345,19.650 19.345,20.750 8.050,20.750 "/>
<polyline fill="none" stroke="#000000" stroke-width="0.050"  points="18.745,19.050 18.745,19.650 19.345,19.650 "/>
<!-- UML - Class -->
<rect x="20.000" y="15.000" width="6.660" height="1.400" fill="#FFFFFF" stroke="#000000" stroke-width="0.100" />
<rect x="20.000" y="16.400" width="6.660" height="0.400" fill="#FFFFFF" stroke="#000000" stroke-width="0.100" />
<rect x="20.000" y="16.800" width="6.660" height="1.000" fill="#FFFFFF" stroke="#000000" stroke-width="0.100" />
<!-- Standard - Line -->
<line x1="7.546" y1="10.250" x2="7.464" y2="14.876" stroke="#000000" stroke-width="0.100" />
<polyline fill="none" stroke="#000000" stroke-width="0.100"  points="7.221,14.484 7.462,14.988 7.721,14.493 "/>
<!-- Standard - Line -->
<line x1="8.245" y1="22.501" x2="7.932" y2="18.560" stroke="#000000" stroke-width="0.100" />
<polygon fill="#FFFFFF" stroke="#000000" stroke-width="0.100"  points="8.181,18.540 7.893,18.061 7.683,18.579 "/>
<!-- Standard - Line -->
<line x1="10.379" y1="15.796" x2="19.776" y2="15.702" stroke="#000000" stroke-width="0.100" />
<polygon fill="#FFFFFF" stroke="#000000" stroke-width="0.100"  points="10.020,15.800 10.267,15.548 10.520,15.795 10.272,16.047 "/>
<polyline fill="none" stroke="#000000" stroke-width="0.100"  points="19.391,15.956 19.888,15.701 19.386,15.456 "/>
<!-- Standard - PolyLine -->
<polyline fill="none" stroke="#000000" stroke-width="0.100"  points="19.953,22.000 19.900,19.800 23.400,19.850 23.351,18.411 "/>
<polygon fill="#FFFFFF" stroke="#000000" stroke-width="0.100"  points="23.601,18.403 23.334,17.912 23.101,18.420 "/>
<!-- Standard - PolyLine -->
<polyline fill="none" stroke="#000000" stroke-width="0.100"  points="32.229,21.850 32.150,19.950 26.550,19.950 26.629,18.411 "/>
<polygon fill="#FFFFFF" stroke="#000000" stroke-width="0.100"  points="26.878,18.424 26.654,17.912 26.379,18.398 "/>
<!-- Standard - Line -->
<line x1="10.296" y1="17.949" x2="11.792" y2="18.807" stroke="#000000" stroke-width="0.100" />
<polygon fill="#000000" stroke="#000000" stroke-width="0.100"  points="12.118,18.994 11.559,18.962 11.792,18.807 11.808,18.528 "/>
<!-- Standard - Text -->
<!-- Standard - Text -->
</g>
</svg>