<?xml version="1.0" encoding="UTF-8" standalone="no"?>
<!-- Created by diasvg.py -->
<svg width="21.600cm" height="17.900cm" viewBox="6.950 12.950 21.600 17.900"
 xmlns="http://www.w3.org/2000/svg"
 xmlns:xlink="http://www.w3.org/1999/xlink">
<!-- Layer: Background -->
<g id="Background">
</g>
<!-- Layer: Background -->
<g id="Background">
<!-- UML - Node -->
<polygon fill="#FFFFFF" stroke="#000000" stroke-width="0.100"  points="7.000,21.000 7.500,20.500 28.500,20.500 28.500,30.300 28.000,30.800 7.000,30.800 7.000,21.000 "/>
<line x1="7.000" y1="21.000" x2="28.000" y2="21.000" stroke="#000000" stroke-width="0.100" />
<line x1="28.000" y1="21.000" x2="28.500" y2="20.500" stroke="#000000" stroke-width="0.100" />
<line x1="28.000" y1="21.000" x2="28.000" y2="30.800" stroke="#000000" stroke-width="0.100" />
<line x1="7.500" y1="22.247" x2="7.500" y2="22.247" stroke="#000000" stroke-width="0.050" />
<!-- UML - Class -->
<rect x="15.000" y="13.000" width="3.670" height="1.400" fill="#FFFFFF" stroke="#000000" stroke-width="0.100" />
<rect x="15.000" y="14.400" width="3.670" height="0.400" fill="#FFFFFF" stroke="#000000" stroke-width="0.100" />
<rect x="15.000" y="14.800" width="3.670" height="0.400" fill="#FFFFFF" stroke="#000000" stroke-width="0.100" />
<!-- Standard - Text -->
<!-- Flowchart - Box -->
<rect x="9.000" y="22.000" width="4.000" height="1.900" fill="#FFFFFF" stroke="#000000" stroke-width="0.100"  rx="0.000" />
<!-- Flowchart - Box -->
<rect x="10.000" y="25.000" width="4.000" height="1.900" fill="#FFFFFF" stroke="#000000" stroke-width="0.100"  rx="0.000" />
<!-- Flowchart - Box -->
<rect x="14.000" y="28.000" width="4.000" height="1.900" fill="#FFFFFF" stroke="#000000" stroke-width="0.100"  rx="0.000" />
<!-- Flowchart - Box -->
<rect x="23.000" y="22.000" width="4.000" height="1.900" fill="#FFFFFF" stroke="#000000" stroke-width="0.100"  rx="0.000" />
<!-- Flowchart - Box -->
<rect x="23.000" y="25.000" width="4.000" height="1.900" fill="#FFFFFF" stroke="#000000" stroke-width="0.100"  rx="0.000" />
<!-- Flowchart - Box -->
<rect x="22.000" y="28.000" width="4.000" height="1.900" fill="#FFFFFF" stroke="#000000" stroke-width="0.100"  rx="0.000" />
<!-- Standard - Line -->
<line x1="16.536" y1="15.200" x2="11.307" y2="21.622" stroke="#000000" stroke-width="0.100" />
<polygon fill="#000000" stroke="#000000" stroke-width="0.100"  points="11.071,21.913 11.192,21.368 11.307,21.622 11.580,21.683 "/>
<!-- Standard - Line -->
<line x1="16.536" y1="15.200" x2="13.165" y2="24.542" stroke="#000000" stroke-width="0.100" />
<polygon fill="#000000" stroke="#000000" stroke-width="0.100"  points="13.038,24.895 12.972,24.340 13.165,24.542 13.443,24.509 "/>
<!-- Standard - Line -->
<line x1="16.536" y1="15.200" x2="16.020" y2="27.514" stroke="#000000" stroke-width="0.100" />
<polygon fill="#000000" stroke="#000000" stroke-width="0.100"  points="16.005,27.888 15.776,27.378 16.020,27.514 16.275,27.399 "/>
<!-- Standard - Line -->
<line x1="16.536" y1="15.200" x2="23.755" y2="27.579" stroke="#000000" stroke-width="0.100" />
<polygon fill="#000000" stroke="#000000" stroke-width="0.100"  points="23.944,27.903 23.476,27.597 23.755,27.579 23.908,27.346 "/>
<!-- Standard - Line -->
<line x1="16.536" y1="15.200" x2="24.682" y2="24.632" stroke="#000000" stroke-width="0.100" />
<polygon fill="#000000" stroke="#000000" stroke-width="0.100"  points="24.927,24.915 24.411,24.700 24.682,24.632 24.789,24.374 "/>
<!-- Standard - Line -->
<line x1="16.536" y1="15.200" x2="24.621" y2="21.695" stroke="#000000" stroke-width="0.100" />
<polygon fill="#000000" stroke="#000000" stroke-width="0.100"  points="24.913,21.930 24.366,21.812 24.621,21.695 24.680,21.422 "/>
</g>
</svg>