<?xml version="1.0" encoding="UTF-8" standalone="no"?>
<!-- Created by diasvg.py -->
<svg width="36.110cm" height="11.520cm" viewBox="5.400 8.455 36.110 11.520"
 xmlns="http://www.w3.org/2000/svg"
 xmlns:xlink="http://www.w3.org/1999/xlink">
<!-- Layer: Background -->
<g id="Background">
</g>
<!-- Layer: Fundal -->
<g id="Fundal">
<!-- UML - Class -->
<rect x="6.150" y="8.850" width="5.088" height="1.400" fill="#FFFFFF" stroke="#000000" stroke-width="0.100" />
<rect x="6.150" y="10.250" width="5.088" height="0.400" fill="#FFFFFF" stroke="#000000" stroke-width="0.100" />
<rect x="6.150" y="10.650" width="5.088" height="4.200" fill="#FFFFFF" stroke="#000000" stroke-width="0.100" />
<!-- UML - Class -->
<rect x="15.500" y="8.850" width="7.045" height="1.400" fill="#FFFFFF" stroke="#000000" stroke-width="0.100" />
<rect x="15.500" y="10.250" width="7.045" height="0.400" fill="#FFFFFF" stroke="#000000" stroke-width="0.100" />
<rect x="15.500" y="10.650" width="7.045" height="2.600" fill="#FFFFFF" stroke="#000000" stroke-width="0.100" />
<!-- UML - Class -->
<rect x="15.950" y="17.525" width="6.925" height="1.400" fill="#FFFFFF" stroke="#000000" stroke-width="0.100" />
<rect x="15.950" y="18.925" width="6.925" height="0.400" fill="#FFFFFF" stroke="#000000" stroke-width="0.100" />
<rect x="15.950" y="19.325" width="6.925" height="0.400" fill="#FFFFFF" stroke="#000000" stroke-width="0.100" />
<!-- UML - Note -->
<polygon fill="#FFFFFF" stroke="#000000" stroke-width="0.100"  points="28.625,10.200 40.860,10.200 41.460,10.800 41.460,11.900 28.625,11.900 "/>
<polyline fill="none" stroke="#000000" stroke-width="0.050"  points="40.860,10.200 40.860,10.800 41.460,10.800 "/>
<!-- UML - Note -->
<polygon fill="#FFFFFF" stroke="#000000" stroke-width="0.100"  points="28.875,17.375 37.260,17.375 37.860,17.975 37.860,19.075 28.875,19.075 "/>
<polyline fill="none" stroke="#000000" stroke-width="0.050"  points="37.260,17.375 37.260,17.975 37.860,17.975 "/>
<!-- Standard - Line -->
<line x1="11.768" y1="9.550" x2="15.141" y2="9.550" stroke="#000000" stroke-width="0.100" />
<ellipse cx="11.018" cy="9.550" rx="0.250" ry="0.250" fill="#000000" stroke="none"  stroke-width="0.100" />
<polygon fill="#000000" stroke="none" stroke-width="0.100"  points="11.768,9.300 11.268,9.550 11.768,9.800 "/>
<polygon fill="#FFFFFF" stroke="#000000" stroke-width="0.100"  points="15.500,9.550 15.250,9.800 15.000,9.550 15.250,9.300 "/>
<!-- UML - Generalization -->
<polyline fill="none" stroke="#000000" stroke-width="0.100"  points="19.023,14.162 19.023,17.587 19.049,17.587 19.049,17.525 "/>
<polygon fill="#FFFFFF" stroke="#000000" stroke-width="0.100"  points="19.422,14.162 19.023,13.362 18.623,14.162 "/>
<!-- UML - Generalization -->
<polyline fill="none" stroke="#000000" stroke-width="0.100"  points="8.694,15.762 8.694,16.688 8.791,16.688 8.791,17.725 "/>
<polygon fill="#FFFFFF" stroke="#000000" stroke-width="0.100"  points="9.094,15.762 8.694,14.962 8.294,15.762 "/>
<!-- UML - Class -->
<rect x="5.450" y="17.725" width="6.683" height="1.400" fill="#FFFFFF" stroke="#000000" stroke-width="0.100" />
<rect x="5.450" y="19.125" width="6.683" height="0.400" fill="#FFFFFF" stroke="#000000" stroke-width="0.100" />
<rect x="5.450" y="19.525" width="6.683" height="0.400" fill="#FFFFFF" stroke="#000000" stroke-width="0.100" />
<!-- Standard - Line -->
<line x1="12.728" y1="18.751" x2="15.900" y2="18.691" stroke="#000000" stroke-width="0.100" stroke-dasharray="1.00,1.00"/>
<polygon fill="#000000" stroke="#000000" stroke-width="0.100"  points="12.723,18.501 12.228,18.760 12.732,19.001 "/>
<!-- Standard - Line -->
<line x1="23.144" y1="11.050" x2="28.626" y2="11.050" stroke="#000000" stroke-width="0.100" stroke-dasharray="1.00,1.00"/>
<path stroke="#000000" fill="#FFFFFF" stroke-width="0.100"  d="M 22.644,11.050 C 22.644,10.925 22.769,10.800 22.894,10.800 C 23.019,10.800 23.144,10.925 23.144,11.050 C 23.144,11.175 23.019,11.300 22.894,11.300 C 22.769,11.300 22.644,11.175 22.644,11.050 z"/>
<!-- Standard - Line -->
<line x1="22.698" y1="18.225" x2="28.875" y2="18.225" stroke="#000000" stroke-width="0.100" stroke-dasharray="1.00,1.00"/>
<path stroke="#000000" fill="#FFFFFF" stroke-width="0.100"  d="M 22.198,18.225 C 22.198,18.100 22.323,17.975 22.448,17.975 C 22.573,17.975 22.698,18.100 22.698,18.225 C 22.698,18.350 22.573,18.475 22.448,18.475 C 22.323,18.475 22.198,18.350 22.198,18.225 z"/>
<!-- Standard - Text -->
<!-- Standard - Text -->
</g>
</svg>