<?xml version="1.0" encoding="UTF-8" standalone="no"?>
<!-- Created by diasvg.py -->
<svg width="132.862cm" height="71.360cm" viewBox="1.528 -12.910 132.862 71.360"
 xmlns="http://www.w3.org/2000/svg"
 xmlns:xlink="http://www.w3.org/1999/xlink">
<!-- Layer: Background -->
<g id="Background">
</g>
<!-- Layer: Background -->
<g id="Background">
</g>
<!-- Layer: Background -->
<g id="Background">
</g>
<!-- Layer: Background -->
<g id="Background">
</g>
<!-- Layer: Background -->
<g id="Background">
<!-- UML - Class -->
<rect x="24.950" y="27.700" width="23.215" height="1.400" fill="#FFFFFF" stroke="#000000" stroke-width="0.100" />
<rect x="24.950" y="29.100" width="23.215" height="3.400" fill="#FFFFFF" stroke="#000000" stroke-width="0.100" />
<rect x="24.950" y="32.500" width="23.215" height="5.000" fill="#FFFFFF" stroke="#000000" stroke-width="0.100" />
<!-- UML - Class -->
<rect x="49.250" y="28.600" width="12.435" height="1.400" fill="#FFFFFF" stroke="#000000" stroke-width="0.100" />
<rect x="49.250" y="30.000" width="12.435" height="1.000" fill="#FFFFFF" stroke="#000000" stroke-width="0.100" />
<rect x="49.250" y="31.000" width="12.435" height="3.400" fill="#FFFFFF" stroke="#000000" stroke-width="0.100" />
<!-- UML - Class -->
<rect x="40.182" y="41.162" width="14.745" height="1.400" fill="#FFFFFF" stroke="#000000" stroke-width="0.100" />
<rect x="40.182" y="42.562" width="14.745" height="1.800" fill="#FFFFFF" stroke="#000000" stroke-width="0.100" />
<rect x="40.182" y="44.362" width="14.745" height="5.800" fill="#FFFFFF" stroke="#000000" stroke-width="0.100" />
<rect x="52.627" y="40.462" width="2.700" height="1.000" fill="#FFFFFF" stroke="#000000" stroke-width="0.100" stroke-dasharray="0.30,0.30"/>
<!-- Standard - Text -->
<!-- UML - Class -->
<rect x="58.950" y="45.050" width="25.525" height="1.400" fill="#FFFFFF" stroke="#000000" stroke-width="0.100" />
<rect x="58.950" y="46.450" width="25.525" height="2.600" fill="#FFFFFF" stroke="#000000" stroke-width="0.100" />
<rect x="58.950" y="49.050" width="25.525" height="5.800" fill="#FFFFFF" stroke="#000000" stroke-width="0.100" />
<!-- UML - Class -->
<rect x="2.650" y="18.100" width="11.665" height="1.400" fill="#FFFFFF" stroke="#000000" stroke-width="0.100" />
<rect x="2.650" y="19.500" width="11.665" height="1.000" fill="#FFFFFF" stroke="#000000" stroke-width="0.100" />
<rect x="2.650" y="20.500" width="11.665" height="3.400" fill="#FFFFFF" stroke="#000000" stroke-width="0.100" />
<!-- Standard - Text -->
<!-- UML - Association -->
<polyline fill="none" stroke="#000000" stroke-width="0.100"  points="49.424,35.400 49.000,35.400 49.000,40.000 71.713,40.000 71.713,45.050 "/>
<polygon fill="#000000" stroke="#000000" stroke-width="0.100"  points="48.165,35.400 48.865,35.160 49.565,35.400 48.865,35.640 "/>
<!-- UML - Association -->
<polyline fill="none" stroke="#000000" stroke-width="0.100"  points="56.186,43.062 57.550,43.062 57.550,50.350 58.950,50.350 "/>
<polygon fill="#FFFFFF" stroke="#000000" stroke-width="0.100"  points="54.927,43.062 55.627,42.822 56.327,43.062 55.627,43.302 "/>
<!-- UML - Association -->
<polyline fill="none" stroke="#000000" stroke-width="0.100"  points="36.631,45.350 31.600,45.350 31.600,48.050 32.800,48.050 32.800,45.662 40.182,45.662 "/>
<polygon fill="#FFFFFF" stroke="#000000" stroke-width="0.100"  points="37.890,45.350 37.190,45.590 36.490,45.350 37.190,45.110 "/>
<!-- UML - Association -->
<polyline fill="none" stroke="#000000" stroke-width="0.100"  points="23.691,29.600 20.000,29.600 20.000,18.100 14.315,18.100 "/>
<polygon fill="#000000" stroke="#000000" stroke-width="0.100"  points="24.950,29.600 24.250,29.840 23.550,29.600 24.250,29.360 "/>
<!-- UML - Class -->
<rect x="63.800" y="6.950" width="20.135" height="1.400" fill="#FFFFFF" stroke="#000000" stroke-width="0.100" />
<rect x="63.800" y="8.350" width="20.135" height="1.800" fill="#FFFFFF" stroke="#000000" stroke-width="0.100" />
<rect x="63.800" y="10.150" width="20.135" height="3.400" fill="#FFFFFF" stroke="#000000" stroke-width="0.100" />
<!-- UML - Class -->
<rect x="33.897" y="6.182" width="22.830" height="1.400" fill="#FFFFFF" stroke="#000000" stroke-width="0.100" />
<rect x="33.897" y="7.582" width="22.830" height="3.400" fill="#FFFFFF" stroke="#000000" stroke-width="0.100" />
<rect x="33.897" y="10.982" width="22.830" height="4.200" fill="#FFFFFF" stroke="#000000" stroke-width="0.100" />
<!-- UML - Class -->
<rect x="15.280" y="7.332" width="15.515" height="1.400" fill="#FFFFFF" stroke="#000000" stroke-width="0.100" />
<rect x="15.280" y="8.732" width="15.515" height="1.000" fill="#FFFFFF" stroke="#000000" stroke-width="0.100" />
<rect x="15.280" y="9.732" width="15.515" height="3.400" fill="#FFFFFF" stroke="#000000" stroke-width="0.100" />
<rect x="28.495" y="6.632" width="2.700" height="1.000" fill="#FFFFFF" stroke="#000000" stroke-width="0.100" stroke-dasharray="0.30,0.30"/>
<!-- UML - Association -->
<polyline fill="none" stroke="#000000" stroke-width="0.100"  points="62.541,8.850 59.914,8.850 59.914,11.482 56.727,11.482 "/>
<polygon fill="#FFFFFF" stroke="#000000" stroke-width="0.100"  points="63.800,8.850 63.100,9.090 62.400,8.850 63.100,8.610 "/>
<!-- UML - Association -->
<polyline fill="none" stroke="#000000" stroke-width="0.100"  points="62.541,13.550 60.650,13.550 60.650,26.000 49.000,26.000 49.000,32.000 48.165,32.000 "/>
<polygon fill="#000000" stroke="#000000" stroke-width="0.100"  points="63.800,13.550 63.100,13.790 62.400,13.550 63.100,13.310 "/>
<!-- UML - Class -->
<rect x="21.000" y="19.000" width="13.975" height="1.400" fill="#FFFFFF" stroke="#000000" stroke-width="0.100" />
<rect x="21.000" y="20.400" width="13.975" height="1.000" fill="#FFFFFF" stroke="#000000" stroke-width="0.100" />
<rect x="21.000" y="21.400" width="13.975" height="3.400" fill="#FFFFFF" stroke="#000000" stroke-width="0.100" />
<!-- UML - Association -->
<polyline fill="none" stroke="#000000" stroke-width="0.100"  points="23.037,14.391 23.037,16.000 37.950,16.000 37.950,17.200 "/>
<polygon fill="#000000" stroke="#000000" stroke-width="0.100"  points="23.037,13.133 23.277,13.832 23.037,14.532 22.797,13.832 "/>
<!-- UML - Class -->
<rect x="53.000" y="-2.000" width="8.970" height="1.400" fill="#FFFFFF" stroke="#000000" stroke-width="0.100" />
<rect x="53.000" y="-0.600" width="8.970" height="1.000" fill="#FFFFFF" stroke="#000000" stroke-width="0.100" />
<rect x="53.000" y="0.400" width="8.970" height="1.000" fill="#FFFFFF" stroke="#000000" stroke-width="0.100" />
<rect x="59.670" y="-2.700" width="2.700" height="1.000" fill="#FFFFFF" stroke="#000000" stroke-width="0.100" stroke-dasharray="0.30,0.30"/>
<!-- UML - Class -->
<rect x="31.950" y="-12.850" width="17.825" height="1.400" fill="#FFFFFF" stroke="#000000" stroke-width="0.100" />
<rect x="31.950" y="-11.450" width="17.825" height="0.400" fill="#FFFFFF" stroke="#000000" stroke-width="0.100" />
<rect x="31.950" y="-11.050" width="17.825" height="5.800" fill="#FFFFFF" stroke="#000000" stroke-width="0.100" />
<!-- UML - Class -->
<rect x="24.250" y="-2.500" width="14.745" height="1.400" fill="#FFFFFF" stroke="#000000" stroke-width="0.100" />
<rect x="24.250" y="-1.100" width="14.745" height="0.400" fill="#FFFFFF" stroke="#000000" stroke-width="0.100" />
<rect x="24.250" y="-0.700" width="14.745" height="3.400" fill="#FFFFFF" stroke="#000000" stroke-width="0.100" />
<rect x="36.695" y="-3.200" width="2.700" height="1.000" fill="#FFFFFF" stroke="#000000" stroke-width="0.100" stroke-dasharray="0.30,0.30"/>
<!-- UML - Generalization -->
<polyline fill="none" stroke="#000000" stroke-width="0.100"  points="31.622,3.612 31.622,6.194 23.037,6.194 23.037,7.332 "/>
<polygon fill="#FFFFFF" stroke="#000000" stroke-width="0.100"  points="32.023,3.612 31.622,2.812 31.223,3.612 "/>
<!-- UML - Generalization -->
<polyline fill="none" stroke="#000000" stroke-width="0.100"  points="40.862,-4.338 40.862,5.466 45.312,5.466 45.312,6.133 "/>
<polygon fill="#FFFFFF" stroke="#000000" stroke-width="0.100"  points="41.262,-4.338 40.862,-5.138 40.462,-4.338 "/>
<!-- UML - Generalization -->
<polyline fill="none" stroke="#000000" stroke-width="0.100"  points="57.485,2.312 57.485,4.550 73.867,4.550 73.867,6.900 "/>
<polygon fill="#FFFFFF" stroke="#000000" stroke-width="0.100"  points="57.885,2.312 57.485,1.512 57.085,2.312 "/>
<!-- UML - Association -->
<polyline fill="none" stroke="#000000" stroke-width="0.100"  points="51.741,-0.100 51.037,-0.100 51.037,-12.150 49.775,-12.150 "/>
<polygon fill="#000000" stroke="#000000" stroke-width="0.100"  points="53.000,-0.100 52.300,0.140 51.600,-0.100 52.300,-0.340 "/>
<!-- UML - Class -->
<rect x="37.950" y="16.500" width="16.285" height="1.400" fill="#FFFFFF" stroke="#000000" stroke-width="0.100" />
<rect x="37.950" y="17.900" width="16.285" height="1.800" fill="#FFFFFF" stroke="#000000" stroke-width="0.100" />
<rect x="37.950" y="19.700" width="16.285" height="3.400" fill="#FFFFFF" stroke="#000000" stroke-width="0.100" />
<!-- UML - Association -->
<polyline fill="none" stroke="#000000" stroke-width="0.100"  points="46.093,24.407 46.093,27.000 27.988,27.000 27.988,24.800 "/>
<polygon fill="#000000" stroke="#000000" stroke-width="0.100"  points="46.093,23.149 46.333,23.849 46.093,24.549 45.852,23.849 "/>
<!-- Flowchart - Box -->
<rect x="100.954" y="-2.768" width="3.323" height="1.900" fill="#FFFFFF" stroke="#000000" stroke-width="0.100"  rx="0.000" />
<!-- Flowchart - Box -->
<rect x="98.909" y="1.257" width="7.586" height="1.900" fill="#FFFFFF" stroke="#000000" stroke-width="0.100"  rx="0.000" />
<!-- Flowchart - Box -->
<rect x="94.920" y="8.130" width="3.392" height="1.900" fill="#FFFFFF" stroke="#000000" stroke-width="0.100"  rx="0.000" />
<!-- Flowchart - Box -->
<rect x="100.320" y="7.730" width="4.993" height="2.700" fill="#FFFFFF" stroke="#000000" stroke-width="0.100"  rx="0.000" />
<!-- Flowchart - Box -->
<rect x="100.356" y="3.532" width="4.920" height="1.900" fill="#FFFFFF" stroke="#000000" stroke-width="0.100"  rx="0.000" />
<!-- Standard - PolyLine -->
<polyline fill="none" stroke="#000000" stroke-width="0.100"  points="101.586,5.432 101.566,7.044 96.616,7.044 96.616,7.644 "/>
<polygon fill="#000000" stroke="#000000" stroke-width="0.100"  points="96.616,8.019 96.366,7.519 96.616,7.644 96.866,7.519 "/>
<!-- Standard - Line -->
<line x1="102.816" y1="5.432" x2="102.816" y2="7.244" stroke="#000000" stroke-width="0.100" />
<polygon fill="#000000" stroke="#000000" stroke-width="0.100"  points="102.816,7.619 102.566,7.119 102.816,7.244 103.066,7.119 "/>
<!-- Flowchart - Box -->
<rect x="107.516" y="8.230" width="4.500" height="1.900" fill="#FFFFFF" stroke="#000000" stroke-width="0.100"  rx="0.000" />
<!-- Standard - Line -->
<line x1="109.716" y1="5.532" x2="109.757" y2="7.744" stroke="#000000" stroke-width="0.100" />
<polygon fill="#000000" stroke="#000000" stroke-width="0.100"  points="109.764,8.119 109.505,7.623 109.757,7.744 110.005,7.614 "/>
<!-- Standard - Line -->
<line x1="102.616" y1="-0.868" x2="102.682" y2="0.770" stroke="#000000" stroke-width="0.100" />
<polygon fill="#000000" stroke="#000000" stroke-width="0.100"  points="102.697,1.145 102.427,0.655 102.682,0.770 102.927,0.635 "/>
<!-- Flowchart - Box -->
<rect x="88.889" y="12.094" width="3.955" height="1.900" fill="#FFFFFF" stroke="#000000" stroke-width="0.100"  rx="0.000" />
<!-- Flowchart - Box -->
<rect x="82.755" y="15.950" width="4.522" height="1.900" fill="#FFFFFF" stroke="#000000" stroke-width="0.100"  rx="0.000" />
<!-- Flowchart - Box -->
<rect x="88.605" y="15.950" width="4.522" height="1.900" fill="#FFFFFF" stroke="#000000" stroke-width="0.100"  rx="0.000" />
<!-- Flowchart - Box -->
<rect x="95.170" y="15.950" width="3.392" height="1.900" fill="#FFFFFF" stroke="#000000" stroke-width="0.100"  rx="0.000" />
<!-- Standard - PolyLine -->
<polyline fill="none" stroke="#000000" stroke-width="0.100"  points="89.877,13.994 89.866,14.844 84.966,14.844 84.994,15.464 "/>
<polygon fill="#000000" stroke="#000000" stroke-width="0.100"  points="85.011,15.839 84.739,15.351 84.994,15.464 85.238,15.328 "/>
<!-- Standard - Line -->
<line x1="90.866" y1="13.994" x2="90.866" y2="15.464" stroke="#000000" stroke-width="0.100" />
<polygon fill="#000000" stroke="#000000" stroke-width="0.100"  points="90.866,15.839 90.616,15.339 90.866,15.464 91.116,15.339 "/>
<!-- Standard - PolyLine -->
<polyline fill="none" stroke="#000000" stroke-width="0.100"  points="91.855,13.994 91.866,14.894 95.966,14.944 95.993,15.464 "/>
<polygon fill="#000000" stroke="#000000" stroke-width="0.100"  points="96.012,15.839 95.737,15.352 95.993,15.464 96.236,15.327 "/>
<!-- Flowchart - Box -->
<rect x="100.491" y="15.950" width="3.550" height="1.900" fill="#FFFFFF" stroke="#000000" stroke-width="0.100"  rx="0.000" />
<!-- Standard - PolyLine -->
<polyline fill="none" stroke="#000000" stroke-width="0.100"  points="92.844,13.994 102.266,14.044 102.266,15.464 "/>
<polygon fill="#000000" stroke="#000000" stroke-width="0.100"  points="102.266,15.839 102.016,15.339 102.266,15.464 102.516,15.339 "/>
<!-- Flowchart - Box -->
<rect x="106.950" y="12.957" width="5.433" height="1.900" fill="#FFFFFF" stroke="#000000" stroke-width="0.100"  rx="0.000" />
<!-- Flowchart - Box -->
<rect x="107.466" y="3.632" width="4.500" height="1.900" fill="#FFFFFF" stroke="#000000" stroke-width="0.100"  rx="0.000" />
<!-- Flowchart - Box -->
<rect x="104.889" y="17.850" width="3.955" height="1.900" fill="#FFFFFF" stroke="#000000" stroke-width="0.100"  rx="0.000" />
<!-- Flowchart - Box -->
<rect x="111.436" y="17.850" width="3.260" height="1.900" fill="#FFFFFF" stroke="#000000" stroke-width="0.100"  rx="0.000" />
<!-- Standard - PolyLine -->
<polyline fill="none" stroke="#000000" stroke-width="0.100"  points="108.308,14.857 108.266,16.257 105.866,16.207 105.874,17.364 "/>
<polygon fill="#000000" stroke="#000000" stroke-width="0.100"  points="105.876,17.739 105.623,17.240 105.874,17.364 106.123,17.237 "/>
<!-- Standard - PolyLine -->
<polyline fill="none" stroke="#000000" stroke-width="0.100"  points="111.024,14.857 111.016,16.007 113.066,15.957 113.066,17.364 "/>
<polygon fill="#000000" stroke="#000000" stroke-width="0.100"  points="113.066,17.739 112.816,17.239 113.066,17.364 113.316,17.239 "/>
<!-- Flowchart - Box -->
<rect x="90.036" y="20.369" width="3.260" height="1.900" fill="#FFFFFF" stroke="#000000" stroke-width="0.100"  rx="0.000" />
<!-- Flowchart - Box -->
<rect x="80.855" y="24.912" width="4.522" height="1.900" fill="#FFFFFF" stroke="#000000" stroke-width="0.100"  rx="0.000" />
<!-- Flowchart - Box -->
<rect x="87.192" y="24.912" width="4.522" height="1.900" fill="#FFFFFF" stroke="#000000" stroke-width="0.100"  rx="0.000" />
<!-- Flowchart - Box -->
<rect x="93.530" y="24.912" width="3.392" height="1.900" fill="#FFFFFF" stroke="#000000" stroke-width="0.100"  rx="0.000" />
<!-- Flowchart - Box -->
<rect x="98.737" y="24.912" width="3.157" height="1.900" fill="#FFFFFF" stroke="#000000" stroke-width="0.100"  rx="0.000" />
<!-- Standard - PolyLine -->
<polyline fill="none" stroke="#000000" stroke-width="0.100"  points="90.036,22.269 90.050,23.300 83.050,23.350 83.096,24.425 "/>
<polygon fill="#000000" stroke="#000000" stroke-width="0.100"  points="83.111,24.800 82.840,24.311 83.096,24.425 83.340,24.290 "/>
<!-- Standard - PolyLine -->
<polyline fill="none" stroke="#000000" stroke-width="0.100"  points="90.851,22.269 90.900,23.800 89.450,23.850 89.452,24.425 "/>
<polygon fill="#000000" stroke="#000000" stroke-width="0.100"  points="89.453,24.800 89.202,24.301 89.452,24.425 89.702,24.299 "/>
<!-- Standard - PolyLine -->
<polyline fill="none" stroke="#000000" stroke-width="0.100"  points="91.666,22.269 91.700,23.900 95.150,23.850 95.191,24.426 "/>
<polygon fill="#000000" stroke="#000000" stroke-width="0.100"  points="95.218,24.800 94.933,24.319 95.191,24.426 95.432,24.284 "/>
<!-- Standard - PolyLine -->
<polyline fill="none" stroke="#000000" stroke-width="0.100"  points="92.481,22.269 92.500,23.400 100.300,23.400 100.311,24.425 "/>
<polygon fill="#000000" stroke="#000000" stroke-width="0.100"  points="100.315,24.800 100.060,24.303 100.311,24.425 100.560,24.297 "/>
<!-- Flowchart - Box -->
<rect x="104.805" y="22.019" width="4.522" height="1.900" fill="#FFFFFF" stroke="#000000" stroke-width="0.100"  rx="0.000" />
<!-- Flowchart - Box -->
<rect x="105.329" y="26.712" width="3.475" height="1.900" fill="#FFFFFF" stroke="#000000" stroke-width="0.100"  rx="0.000" />
<!-- Standard - Line -->
<line x1="107.066" y1="23.919" x2="107.066" y2="26.225" stroke="#000000" stroke-width="0.100" />
<polygon fill="#000000" stroke="#000000" stroke-width="0.100"  points="107.066,26.600 106.816,26.100 107.066,26.225 107.316,26.100 "/>
<!-- Flowchart - Box -->
<rect x="110.720" y="22.019" width="3.392" height="1.900" fill="#FFFFFF" stroke="#000000" stroke-width="0.100"  rx="0.000" />
<!-- Flowchart - Box -->
<rect x="110.720" y="26.562" width="3.393" height="1.900" fill="#FFFFFF" stroke="#000000" stroke-width="0.100"  rx="0.000" />
<!-- Standard - Line -->
<line x1="112.416" y1="23.919" x2="112.416" y2="26.025" stroke="#000000" stroke-width="0.100" />
<polygon fill="#000000" stroke="#000000" stroke-width="0.100"  points="112.416,26.400 112.166,25.900 112.416,26.025 112.666,25.900 "/>
<!-- Flowchart - Box -->
<rect x="95.219" y="29.657" width="4.095" height="1.900" fill="#FFFFFF" stroke="#000000" stroke-width="0.100"  rx="0.000" />
<!-- Flowchart - Box -->
<rect x="92.390" y="33.482" width="2.853" height="1.900" fill="#FFFFFF" stroke="#000000" stroke-width="0.100"  rx="0.000" />
<!-- Flowchart - Box -->
<rect x="95.704" y="33.482" width="3.157" height="1.900" fill="#FFFFFF" stroke="#000000" stroke-width="0.100"  rx="0.000" />
<!-- Flowchart - Box -->
<rect x="99.635" y="33.482" width="3.062" height="1.900" fill="#FFFFFF" stroke="#000000" stroke-width="0.100"  rx="0.000" />
<!-- Standard - PolyLine -->
<polyline fill="none" stroke="#000000" stroke-width="0.100"  points="96.242,31.557 96.516,32.457 93.766,32.457 93.792,32.995 "/>
<polygon fill="#000000" stroke="#000000" stroke-width="0.100"  points="93.811,33.370 93.537,32.883 93.792,32.995 94.036,32.858 "/>
<!-- Standard - PolyLine -->
<polyline fill="none" stroke="#000000" stroke-width="0.100"  points="97.266,31.557 97.274,32.945 "/>
<polygon fill="#000000" stroke="#000000" stroke-width="0.100"  points="97.276,33.320 97.023,32.821 97.274,32.945 97.523,32.818 "/>
<!-- Standard - PolyLine -->
<polyline fill="none" stroke="#000000" stroke-width="0.100"  points="98.290,31.557 98.000,32.400 100.350,32.400 100.415,32.998 "/>
<polygon fill="#000000" stroke="#000000" stroke-width="0.100"  points="100.456,33.371 100.153,32.901 100.415,32.998 100.650,32.846 "/>
<!-- Flowchart - Box -->
<rect x="95.852" y="38.257" width="2.627" height="1.900" fill="#FFFFFF" stroke="#000000" stroke-width="0.100"  rx="0.000" />
<!-- Flowchart - Box -->
<rect x="100.463" y="38.207" width="2.795" height="1.900" fill="#FFFFFF" stroke="#000000" stroke-width="0.100"  rx="0.000" />
<!-- Flowchart - Box -->
<rect x="126.458" y="22.257" width="3.647" height="1.900" fill="#FFFFFF" stroke="#000000" stroke-width="0.100"  rx="0.000" />
<!-- Flowchart - Box -->
<rect x="120.248" y="22.269" width="4.168" height="1.900" fill="#FFFFFF" stroke="#000000" stroke-width="0.100"  rx="0.000" />
<!-- Flowchart - Box -->
<rect x="120.608" y="26.812" width="3.647" height="1.900" fill="#FFFFFF" stroke="#000000" stroke-width="0.100"  rx="0.000" />
<!-- Standard - Line -->
<line x1="122.332" y1="24.169" x2="122.390" y2="26.275" stroke="#000000" stroke-width="0.100" />
<polygon fill="#000000" stroke="#000000" stroke-width="0.100"  points="122.401,26.650 122.137,26.157 122.390,26.275 122.637,26.143 "/>
<!-- Standard - Text -->
<!-- Standard - PolyLine -->
<polyline fill="none" stroke="#000000" stroke-width="0.100" stroke-dasharray="0.10,0.10" points="73.760,13.746 67.350,25.387 74.050,25.438 73.895,27.750 "/>
<polyline fill="none" stroke="#000000" stroke-width="0.100"  points="73.791,14.207 73.814,13.648 73.353,13.965 "/>
<!-- UML - Class -->
<rect x="20.450" y="43.450" width="17.440" height="1.400" fill="#FFFFFF" stroke="#000000" stroke-width="0.100" />
<rect x="20.450" y="44.850" width="17.440" height="1.800" fill="#FFFFFF" stroke="#000000" stroke-width="0.100" />
<rect x="20.450" y="46.650" width="17.440" height="4.200" fill="#FFFFFF" stroke="#000000" stroke-width="0.100" />
<rect x="35.590" y="42.750" width="2.700" height="1.000" fill="#FFFFFF" stroke="#000000" stroke-width="0.100" stroke-dasharray="0.30,0.30"/>
<!-- UML - Association -->
<polyline fill="none" stroke="#000000" stroke-width="0.100"  points="23.691,33.000 23.200,33.000 23.200,38.200 29.170,38.200 29.170,43.450 "/>
<polygon fill="#FFFFFF" stroke="#000000" stroke-width="0.100"  points="24.950,33.000 24.250,33.240 23.550,33.000 24.250,32.760 "/>
<!-- UML - Association -->
<polyline fill="none" stroke="#000000" stroke-width="0.100"  points="19.191,45.350 18.850,45.350 18.850,21.000 14.315,21.000 "/>
<polygon fill="#000000" stroke="#000000" stroke-width="0.100"  points="20.450,45.350 19.750,45.590 19.050,45.350 19.750,45.110 "/>
<!-- UML - Association -->
<polyline fill="none" stroke="#000000" stroke-width="0.100"  points="19.191,50.850 8.482,50.850 8.482,23.900 "/>
<polygon fill="#000000" stroke="#000000" stroke-width="0.100"  points="20.450,50.850 19.750,51.090 19.050,50.850 19.750,50.610 "/>
<!-- Flowchart - Box -->
<rect x="115.037" y="26.515" width="3.393" height="1.900" fill="#FFFFFF" stroke="#000000" stroke-width="0.100"  rx="0.000" />
<!-- Standard - Text -->
<!-- Standard - PolyLine -->
<polyline fill="none" stroke="#000000" stroke-width="0.100"  points="114.112,23.919 114.100,25.500 116.750,25.550 116.742,26.028 "/>
<polygon fill="#000000" stroke="#000000" stroke-width="0.100"  points="116.735,26.403 116.494,25.899 116.742,26.028 116.994,25.908 "/>
<!-- Standard - Text -->
<!-- Standard - Text -->
<!-- Standard - Text -->
<!-- Standard - Text -->
<!-- UML - Class -->
<rect x="67.100" y="27.750" width="13.590" height="1.400" fill="#FFFFFF" stroke="#000000" stroke-width="0.100" />
<rect x="67.100" y="29.150" width="13.590" height="1.000" fill="#FFFFFF" stroke="#000000" stroke-width="0.100" />
<rect x="67.100" y="30.150" width="13.590" height="3.400" fill="#FFFFFF" stroke="#000000" stroke-width="0.100" />
<!-- UML - Class -->
<rect x="45.695" y="55.600" width="8.200" height="1.400" fill="#FFFFFF" stroke="#000000" stroke-width="0.100" />
<rect x="45.695" y="57.000" width="8.200" height="1.000" fill="#FFFFFF" stroke="#000000" stroke-width="0.100" />
<line x1="45.845" y1="57.980" x2="53.545" y2="57.980" stroke="#000000" stroke-width="0.050" />
<rect x="45.695" y="58.000" width="8.200" height="0.400" fill="#FFFFFF" stroke="#000000" stroke-width="0.100" />
<!-- UML - Association -->
<polyline fill="none" stroke="#000000" stroke-width="0.100"  points="71.713,56.109 71.713,57.000 53.945,57.000 "/>
<polygon fill="#FFFFFF" stroke="#000000" stroke-width="0.100"  points="71.713,54.850 71.953,55.550 71.713,56.250 71.473,55.550 "/>
<!-- UML - Association -->
<polyline fill="none" stroke="#000000" stroke-width="0.100"  points="73.895,34.809 73.895,35.400 88.830,35.400 88.830,28.250 "/>
<polygon fill="#FFFFFF" stroke="#000000" stroke-width="0.100"  points="73.895,33.550 74.135,34.250 73.895,34.950 73.655,34.250 "/>
<!-- UML - Association -->
<polyline fill="none" stroke="#000000" stroke-width="0.100"  points="85.257,50.974 86.275,52.400 86.275,52.400 84.475,54.850 "/>
<polygon fill="#FFFFFF" stroke="#000000" stroke-width="0.100"  points="84.525,49.950 85.128,50.380 85.339,51.089 84.737,50.659 "/>
<!-- UML - Class -->
<rect x="69.100" y="37.250" width="19.750" height="1.400" fill="#FFFFFF" stroke="#000000" stroke-width="0.100" />
<rect x="69.100" y="38.650" width="19.750" height="1.800" fill="#FFFFFF" stroke="#000000" stroke-width="0.100" />
<rect x="69.100" y="40.450" width="19.750" height="3.400" fill="#FFFFFF" stroke="#000000" stroke-width="0.100" />
<!-- UML - Association -->
<polyline fill="none" stroke="#000000" stroke-width="0.100"  points="55.468,35.659 55.468,36.475 78.975,36.475 78.975,37.203 "/>
<polygon fill="#FFFFFF" stroke="#000000" stroke-width="0.100"  points="55.468,34.400 55.708,35.100 55.468,35.800 55.227,35.100 "/>
<!-- Flowchart - Box -->
<rect x="106.745" y="31.850" width="3.392" height="1.900" fill="#FFFFFF" stroke="#000000" stroke-width="0.100"  rx="0.000" />
<!-- Flowchart - Box -->
<rect x="103.585" y="35.800" width="4.130" height="1.900" fill="#FFFFFF" stroke="#000000" stroke-width="0.100"  rx="0.000" />
<!-- Flowchart - Box -->
<rect x="109.681" y="35.700" width="3.138" height="1.900" fill="#FFFFFF" stroke="#000000" stroke-width="0.100"  rx="0.000" />
<!-- Standard - PolyLine -->
<polyline fill="none" stroke="#000000" stroke-width="0.100"  points="107.593,33.750 107.600,34.750 105.750,34.700 105.700,35.252 "/>
<polygon fill="#000000" stroke="#000000" stroke-width="0.100"  points="105.451,35.230 105.655,35.750 105.949,35.275 "/>
<!-- Standard - PolyLine -->
<polyline fill="none" stroke="#000000" stroke-width="0.100"  points="109.289,33.750 109.250,34.850 111.250,34.800 111.250,35.150 "/>
<polygon fill="#000000" stroke="#000000" stroke-width="0.100"  points="111.000,35.150 111.250,35.650 111.500,35.150 "/>
<!-- UML - Association -->
<polyline fill="none" stroke="#000000" stroke-width="0.100"  points="36.691,19.200 35.850,19.200 35.850,17.450 1.578,17.450 1.578,52.975 47.555,52.975 47.555,50.162 "/>
<polygon fill="#FFFFFF" stroke="#000000" stroke-width="0.100"  points="37.950,19.200 37.250,19.440 36.550,19.200 37.250,18.960 "/>
<!-- Standard - Text -->
<!-- UML - Class -->
<rect x="85.500" y="28.250" width="6.660" height="1.400" fill="#FFFFFF" stroke="#000000" stroke-width="0.100" />
<rect x="85.500" y="29.650" width="6.660" height="1.000" fill="#FFFFFF" stroke="#000000" stroke-width="0.100" />
<rect x="85.500" y="30.650" width="6.660" height="0.400" fill="#FFFFFF" stroke="#000000" stroke-width="0.100" />
<!-- Standard - Text -->
<!-- Standard - Text -->
<!-- Standard - Text -->
<!-- Standard - Text -->
<!-- Standard - Text -->
<!-- Standard - Text -->
<!-- Standard - Text -->
<!-- Standard - Text -->
<!-- Flowchart - Box -->
<rect x="125.654" y="26.450" width="3.393" height="1.900" fill="#FFFFFF" stroke="#000000" stroke-width="0.100"  rx="0.000" />
<!-- Flowchart - Box -->
<rect x="130.060" y="26.600" width="4.280" height="1.900" fill="#FFFFFF" stroke="#000000" stroke-width="0.100"  rx="0.000" />
<!-- Standard - PolyLine -->
<polyline fill="none" stroke="#000000" stroke-width="0.100"  points="127.370,24.157 127.353,26.226 "/>
<polyline fill="none" stroke="#000000" stroke-width="0.100"  points="127.106,25.836 127.352,26.338 127.606,25.840 "/>
<!-- Standard - PolyLine -->
<polyline fill="none" stroke="#000000" stroke-width="0.100"  points="129.194,24.157 129.200,25.350 132.000,25.400 132.163,26.379 "/>
<polyline fill="none" stroke="#000000" stroke-width="0.100"  points="131.853,26.038 132.182,26.490 132.346,25.955 "/>
<!-- Standard - Text -->
<!-- Standard - Text -->
<!-- Standard - Text -->
<!-- Standard - Text -->
<!-- Standard - Text -->
<!-- Standard - Text -->
<!-- Standard - Text -->
<!-- Standard - Text -->
<!-- Flowchart - Box -->
<rect x="95.081" y="42.400" width="4.037" height="1.900" fill="#FFFFFF" stroke="#000000" stroke-width="0.100"  rx="0.000" />
<!-- Standard - Line -->
<line x1="97.166" y1="40.157" x2="97.125" y2="42.127" stroke="#000000" stroke-width="0.100" />
<polyline fill="none" stroke="#000000" stroke-width="0.100"  points="96.883,41.733 97.123,42.238 97.383,41.744 "/>
<!-- Flowchart - Box -->
<rect x="100.268" y="42.450" width="3.265" height="1.900" fill="#FFFFFF" stroke="#000000" stroke-width="0.100"  rx="0.000" />
<!-- Standard - Line -->
<line x1="101.861" y1="40.107" x2="101.896" y2="42.226" stroke="#000000" stroke-width="0.100" />
<polyline fill="none" stroke="#000000" stroke-width="0.100"  points="101.640,41.842 101.898,42.338 102.140,41.834 "/>
<!-- Standard - Text -->
</g>
</svg>