<?xml version="1.0" encoding="UTF-8" standalone="no"?>
<!-- Created by diasvg.py -->
<svg width="37.670cm" height="14.800cm" viewBox="0.950 7.350 37.670 14.800"
 xmlns="http://www.w3.org/2000/svg"
 xmlns:xlink="http://www.w3.org/1999/xlink">
<!-- Layer: Background -->
<g id="Background">
</g>
<!-- Layer: Fundal -->
<g id="Fundal">
<!-- UML - Class -->
<rect x="10.175" y="7.400" width="8.200" height="1.400" fill="#FFFFFF" stroke="#000000" stroke-width="0.100" />
<rect x="10.175" y="8.800" width="8.200" height="0.400" fill="#FFFFFF" stroke="#000000" stroke-width="0.100" />
<rect x="10.175" y="9.200" width="8.200" height="1.000" fill="#FFFFFF" stroke="#000000" stroke-width="0.100" />
<!-- UML - Class -->
<rect x="30.725" y="7.400" width="5.965" height="1.400" fill="#FFFFFF" stroke="#000000" stroke-width="0.100" />
<rect x="30.725" y="8.800" width="5.965" height="0.400" fill="#FFFFFF" stroke="#000000" stroke-width="0.100" />
<rect x="30.725" y="9.200" width="5.965" height="2.600" fill="#FFFFFF" stroke="#000000" stroke-width="0.100" />
<!-- UML - Class -->
<rect x="1.000" y="15.700" width="8.200" height="1.400" fill="#FFFFFF" stroke="#000000" stroke-width="0.100" />
<rect x="1.000" y="17.100" width="8.200" height="0.400" fill="#FFFFFF" stroke="#000000" stroke-width="0.100" />
<rect x="1.000" y="17.500" width="8.200" height="1.000" fill="#FFFFFF" stroke="#000000" stroke-width="0.100" />
<!-- UML - Class -->
<rect x="10.175" y="15.600" width="8.200" height="1.400" fill="#FFFFFF" stroke="#000000" stroke-width="0.100" />
<rect x="10.175" y="17.000" width="8.200" height="0.400" fill="#FFFFFF" stroke="#000000" stroke-width="0.100" />
<rect x="10.175" y="17.400" width="8.200" height="1.000" fill="#FFFFFF" stroke="#000000" stroke-width="0.100" />
<!-- UML - Class -->
<rect x="21.400" y="15.600" width="7.863" height="1.400" fill="#FFFFFF" stroke="#000000" stroke-width="0.100" />
<rect x="21.400" y="17.000" width="7.863" height="0.400" fill="#FFFFFF" stroke="#000000" stroke-width="0.100" />
<rect x="21.400" y="17.400" width="7.863" height="2.600" fill="#FFFFFF" stroke="#000000" stroke-width="0.100" />
<!-- UML - Class -->
<rect x="30.725" y="15.600" width="7.845" height="1.400" fill="#FFFFFF" stroke="#000000" stroke-width="0.100" />
<rect x="30.725" y="17.000" width="7.845" height="0.400" fill="#FFFFFF" stroke="#000000" stroke-width="0.100" />
<rect x="30.725" y="17.400" width="7.845" height="2.600" fill="#FFFFFF" stroke="#000000" stroke-width="0.100" />
<!-- UML - Class -->
<rect x="21.350" y="7.400" width="3.133" height="1.400" fill="#FFFFFF" stroke="#000000" stroke-width="0.100" />
<rect x="21.350" y="8.800" width="3.133" height="0.400" fill="#FFFFFF" stroke="#000000" stroke-width="0.100" />
<rect x="21.350" y="9.200" width="3.133" height="0.400" fill="#FFFFFF" stroke="#000000" stroke-width="0.100" />
<!-- Standard - Line -->
<line x1="18.925" y1="8.100" x2="21.350" y2="8.100" stroke="#000000" stroke-width="0.100" />
<polygon fill="#000000" stroke="#000000" stroke-width="0.100"  points="18.925,7.850 18.425,8.100 18.925,8.350 "/>
<!-- Standard - Line -->
<line x1="30.175" y1="8.100" x2="24.190" y2="8.100" stroke="#000000" stroke-width="0.100" />
<polygon fill="#000000" stroke="#000000" stroke-width="0.100"  points="30.175,8.350 30.675,8.100 30.175,7.850 "/>
<!-- Standard - Line -->
<line x1="14.275" y1="10.812" x2="14.275" y2="15.551" stroke="#000000" stroke-width="0.100" />
<polygon fill="#FFFFFF" stroke="#000000" stroke-width="0.100"  points="14.525,10.812 14.275,10.312 14.025,10.812 "/>
<!-- Standard - PolyLine -->
<polyline fill="none" stroke="#000000" stroke-width="0.100"  points="33.403,12.412 33.400,13.050 28.400,13.000 28.450,15.600 "/>
<polygon fill="#FFFFFF" stroke="#000000" stroke-width="0.100"  points="33.653,12.413 33.406,11.912 33.153,12.411 "/>
<!-- Standard - PolyLine -->
<polyline fill="none" stroke="#000000" stroke-width="0.100"  points="36.348,12.354 37.875,15.600 "/>
<polygon fill="#FFFFFF" stroke="#000000" stroke-width="0.100"  points="36.574,12.247 36.135,11.901 36.122,12.460 "/>
<!-- Standard - PolyLine -->
<polyline fill="none" stroke="#000000" stroke-width="0.100"  points="10.161,10.812 10.100,13.450 5.050,13.450 5.100,15.700 "/>
<polygon fill="#FFFFFF" stroke="#000000" stroke-width="0.100"  points="10.411,10.817 10.172,10.312 9.911,10.806 "/>
<!-- Standard - PolyLine -->
<polyline fill="none" stroke="#000000" stroke-width="0.100" stroke-dasharray="1.00,1.00" points="21.413,20.550 21.450,22.100 5.050,22.000 5.100,18.500 "/>
<polygon fill="#000000" stroke="#000000" stroke-width="0.100"  points="21.663,20.544 21.401,20.050 21.163,20.556 "/>
<!-- Standard - PolyLine -->
<polyline fill="none" stroke="#000000" stroke-width="0.100" stroke-dasharray="1.00,1.00" points="34.300,20.550 34.300,21.350 18.400,21.300 18.375,18.400 "/>
<polygon fill="#000000" stroke="#000000" stroke-width="0.100"  points="34.550,20.550 34.300,20.050 34.050,20.550 "/>
</g>
</svg>