<?xml version="1.0" encoding="UTF-8" standalone="no"?>
<!-- Created by diasvg.py -->
<svg width="31.386cm" height="13.532cm" viewBox="2.879 7.200 31.386 13.532"
 xmlns="http://www.w3.org/2000/svg"
 xmlns:xlink="http://www.w3.org/1999/xlink">
<!-- Layer: Background -->
<g id="Background">
</g>
<!-- Layer: Background -->
<g id="Background">
<!-- UML - Class -->
<rect x="4.000" y="7.250" width="5.120" height="1.400" fill="#FFFFFF" stroke="#000000" stroke-width="0.100" />
<rect x="4.000" y="8.650" width="5.120" height="0.400" fill="#FFFFFF" stroke="#000000" stroke-width="0.100" />
<rect x="4.000" y="9.050" width="5.120" height="1.000" fill="#FFFFFF" stroke="#000000" stroke-width="0.100" />
<!-- UML - Class -->
<rect x="22.000" y="14.000" width="9.587" height="1.400" fill="#FFFFFF" stroke="#000000" stroke-width="0.100" />
<rect x="22.000" y="15.400" width="9.587" height="0.400" fill="#FFFFFF" stroke="#000000" stroke-width="0.100" />
<rect x="22.000" y="15.800" width="9.587" height="1.000" fill="#FFFFFF" stroke="#000000" stroke-width="0.100" />
<!-- UML - Class -->
<rect x="10.000" y="14.000" width="9.587" height="1.400" fill="#FFFFFF" stroke="#000000" stroke-width="0.100" />
<rect x="10.000" y="15.400" width="9.587" height="0.400" fill="#FFFFFF" stroke="#000000" stroke-width="0.100" />
<rect x="10.000" y="15.800" width="9.587" height="1.000" fill="#FFFFFF" stroke="#000000" stroke-width="0.100" />
<!-- UML - Class -->
<rect x="17.000" y="7.250" width="4.985" height="1.400" fill="#FFFFFF" stroke="#000000" stroke-width="0.100" />
<rect x="17.000" y="8.650" width="4.985" height="0.400" fill="#FFFFFF" stroke="#000000" stroke-width="0.100" />
<rect x="17.000" y="9.050" width="4.985" height="1.000" fill="#FFFFFF" stroke="#000000" stroke-width="0.100" />
<!-- UML - Note -->
<polygon fill="#FFFFFF" stroke="#000000" stroke-width="0.100"  points="2.929,18.982 9.774,18.982 10.374,19.582 10.374,20.682 2.929,20.682 "/>
<polyline fill="none" stroke="#000000" stroke-width="0.050"  points="9.774,18.982 9.774,19.582 10.374,19.582 "/>
<!-- UML - Note -->
<polygon fill="#FFFFFF" stroke="#000000" stroke-width="0.100"  points="14.200,18.982 21.815,18.982 22.415,19.582 22.415,20.682 14.200,20.682 "/>
<polyline fill="none" stroke="#000000" stroke-width="0.050"  points="21.815,18.982 21.815,19.582 22.415,19.582 "/>
<!-- UML - Note -->
<polygon fill="#FFFFFF" stroke="#000000" stroke-width="0.100"  points="26.000,18.982 33.615,18.982 34.215,19.582 34.215,20.682 26.000,20.682 "/>
<polyline fill="none" stroke="#000000" stroke-width="0.050"  points="33.615,18.982 33.615,19.582 34.215,19.582 "/>
<!-- Standard - PolyLine -->
<polyline fill="none" stroke="#000000" stroke-width="0.100"  points="13.875,14.000 13.850,11.947 17.000,12.000 17.000,10.537 "/>
<polygon fill="#000000" stroke="#000000" stroke-width="0.100"  points="17.000,10.162 17.250,10.662 17.000,10.537 16.750,10.662 "/>
<!-- Standard - PolyLine -->
<polyline fill="none" stroke="#000000" stroke-width="0.100"  points="25.875,14.000 25.906,11.982 21.000,12.000 21.017,10.537 "/>
<polygon fill="#000000" stroke="#000000" stroke-width="0.100"  points="21.021,10.162 21.265,10.665 21.017,10.537 20.765,10.659 "/>
<!-- Standard - Line -->
<line x1="14.554" y1="16.849" x2="14.280" y2="18.502" stroke="#000000" stroke-width="0.100" />
<polygon fill="#000000" stroke="#000000" stroke-width="0.100"  points="14.218,18.872 14.053,18.338 14.280,18.502 14.547,18.420 "/>
<!-- Standard - Line -->
<line x1="25.875" y1="16.800" x2="25.972" y2="18.496" stroke="#000000" stroke-width="0.100" />
<polygon fill="#000000" stroke="#000000" stroke-width="0.100"  points="25.994,18.871 25.715,18.386 25.972,18.496 26.215,18.357 "/>
<!-- Standard - Line -->
<line x1="9.120" y1="7.950" x2="16.513" y2="7.950" stroke="#000000" stroke-width="0.100" />
<polygon fill="#000000" stroke="#000000" stroke-width="0.100"  points="16.888,7.950 16.388,8.200 16.513,7.950 16.388,7.700 "/>
<!-- Standard - Line -->
<line x1="6.560" y1="10.050" x2="6.639" y2="18.500" stroke="#000000" stroke-width="0.100" />
<polygon fill="#000000" stroke="#000000" stroke-width="0.100"  points="6.643,18.875 6.388,18.377 6.639,18.500 6.888,18.373 "/>
<!-- Standard - Text -->
<!-- Standard - Text -->
</g>
</svg>