<?xml version="1.0" encoding="UTF-8" standalone="no"?>
<!DOCTYPE svg PUBLIC "-//W3C//DTD SVG 1.0//EN" "http://www.w3.org/TR/2001/PR-SVG-20010719/DTD/svg10.dtd">
<svg width="25cm" height="15cm" viewBox="144 160 487 282" xmlns="http://www.w3.org/2000/svg" xmlns:xlink="http://www.w3.org/1999/xlink">
  <g>
    <rect style="fill: #ffffff" x="145" y="173" width="56.8" height="28"/>
    <rect style="fill: none; fill-opacity:0; stroke-width: 2; stroke: #000000" x="145" y="173" width="56.8" height="28"/>
    <text font-size="16" style="fill: #000000;text-anchor:middle;font-family:sans-serif;font-style:normal;font-weight:700" x="173.4" y="193">Client</text>
    <rect style="fill: #ffffff" x="145" y="201" width="56.8" height="8"/>
    <rect style="fill: none; fill-opacity:0; stroke-width: 2; stroke: #000000" x="145" y="201" width="56.8" height="8"/>
    <rect style="fill: #ffffff" x="145" y="209" width="56.8" height="8"/>
    <rect style="fill: none; fill-opacity:0; stroke-width: 2; stroke: #000000" x="145" y="209" width="56.8" height="8"/>
  </g>
  <g>
    <rect style="fill: #ffffff" x="342" y="174" width="71.6" height="28"/>
    <rect style="fill: none; fill-opacity:0; stroke-width: 2; stroke: #000000" x="342" y="174" width="71.6" height="28"/>
    <text font-size="16" style="fill: #000000;text-anchor:middle;font-family:sans-serif;font-style:normal;font-weight:700" x="377.8" y="194">Target</text>
    <rect style="fill: #ffffff" x="342" y="202" width="71.6" height="20"/>
    <rect style="fill: none; fill-opacity:0; stroke-width: 2; stroke: #000000" x="342" y="202" width="71.6" height="20"/>
    <text font-size="12.8" style="fill: #000000;text-anchor:start;font-family:monospace;font-style:normal;font-weight:normal" x="345" y="215.2">+Request</text>
    <rect style="fill: #ffffff" x="342" y="222" width="71.6" height="8"/>
    <rect style="fill: none; fill-opacity:0; stroke-width: 2; stroke: #000000" x="342" y="222" width="71.6" height="8"/>
  </g>
  <g>
    <rect style="fill: #ffffff" x="342" y="289" width="73.95" height="28"/>
    <rect style="fill: none; fill-opacity:0; stroke-width: 2; stroke: #000000" x="342" y="289" width="73.95" height="28"/>
    <text font-size="16" style="fill: #000000;text-anchor:middle;font-family:sans-serif;font-style:normal;font-weight:700" x="378.975" y="309">Adapter</text>
    <rect style="fill: #ffffff" x="342" y="317" width="73.95" height="20"/>
    <rect style="fill: none; fill-opacity:0; stroke-width: 2; stroke: #000000" x="342" y="317" width="73.95" height="20"/>
    <text font-size="12.8" style="fill: #000000;text-anchor:start;font-family:monospace;font-style:normal;font-weight:normal" x="345" y="330.2">+Request</text>
    <rect style="fill: #ffffff" x="342" y="337" width="73.95" height="8"/>
    <rect style="fill: none; fill-opacity:0; stroke-width: 2; stroke: #000000" x="342" y="337" width="73.95" height="8"/>
  </g>
  <g>
    <rect style="fill: #ffffff" x="496" y="289" width="133.2" height="28"/>
    <rect style="fill: none; fill-opacity:0; stroke-width: 2; stroke: #000000" x="496" y="289" width="133.2" height="28"/>
    <text font-size="16" style="fill: #000000;text-anchor:middle;font-family:sans-serif;font-style:normal;font-weight:700" x="562.6" y="309">Adaptee</text>
    <rect style="fill: #ffffff" x="496" y="317" width="133.2" height="20"/>
    <rect style="fill: none; fill-opacity:0; stroke-width: 2; stroke: #000000" x="496" y="317" width="133.2" height="20"/>
    <text font-size="12.8" style="fill: #000000;text-anchor:start;font-family:monospace;font-style:normal;font-weight:normal" x="499" y="330.2">+SpecificRequest</text>
    <rect style="fill: #ffffff" x="496" y="337" width="133.2" height="8"/>
    <rect style="fill: none; fill-opacity:0; stroke-width: 2; stroke: #000000" x="496" y="337" width="133.2" height="8"/>
  </g>
  <g>
    <polygon style="fill: #ffffff" points="274,407 472.5,407 484.5,419 484.5,441 274,441 "/>
    <polygon style="fill: none; fill-opacity:0; stroke-width: 2; stroke: #000000" points="274,407 472.5,407 484.5,419 484.5,441 274,441 "/>
    <polyline style="fill: none; fill-opacity:0; stroke-width: 1; stroke: #000000" points="472.5,407 472.5,419 484.5,419 "/>
    <text font-size="12.7998" style="fill: #000000;text-anchor:start;font-family:monospace;font-style:normal;font-weight:normal" x="281" y="430.65">
      <tspan x="281" y="430.65">adaptee.SpecificRequest()</tspan>
    </text>
  </g>
  <g>
    <line style="fill: none; fill-opacity:0; stroke-width: 2; stroke: #000000" x1="201.8" y1="187" x2="331" y2="187.922"/>
    <polygon style="fill: #000000" points="330.965,192.921 341,187.993 331.036,182.922 "/>
    <polygon style="fill: none; fill-opacity:0; stroke-width: 2; stroke: #000000" points="330.965,192.921 341,187.993 331.036,182.922 "/>
  </g>
  <g>
    <polyline style="fill: none; fill-opacity:0; stroke-width: 2; stroke: #000000" points="377.8,248.236 377.8,262 378.975,262 378.975,289 "/>
    <polygon style="fill: #ffffff" points="385.8,248.236 377.8,232.236 369.8,248.236 "/>
    <polygon style="fill: none; fill-opacity:0; stroke-width: 2; stroke: #000000" points="385.8,248.236 377.8,232.236 369.8,248.236 "/>
  </g>
  <g>
    <line style="fill: none; fill-opacity:0; stroke-width: 2; stroke: #000000" x1="415.95" y1="303" x2="485" y2="303"/>
    <polygon style="fill: #000000" points="485,308 495,303 485,298 "/>
    <polygon style="fill: none; fill-opacity:0; stroke-width: 2; stroke: #000000" points="485,308 495,303 485,298 "/>
  </g>
  <text font-size="12.7998" style="fill: #000000;text-anchor:start;font-family:sans-serif;font-style:normal;font-weight:normal" x="426" y="294">
    <tspan x="426" y="294">adaptee</tspan>
  </text>
  <text font-size="12.7998" style="fill: #000000;text-anchor:start;font-family:sans-serif;font-style:normal;font-weight:normal" x="459" y="291">
    <tspan x="459" y="291"></tspan>
  </text>
  <text font-size="12.7998" style="fill: #000000;text-anchor:start;font-family:sans-serif;font-style:normal;font-weight:normal" x="216" y="174">
    <tspan x="216" y="174">target</tspan>
  </text>
  <text font-size="12.7998" style="fill: #000000;text-anchor:start;font-family:sans-serif;font-style:normal;font-weight:normal" x="379.25" y="424">
    <tspan x="379.25" y="424"></tspan>
  </text>
  <line style="fill: none; fill-opacity:0; stroke-width: 2; stroke-dasharray: 4; stroke: #000000" x1="378.975" y1="345" x2="379.25" y2="407"/>
</svg>
