<?xml version="1.0" encoding="UTF-8" standalone="no"?>
<!DOCTYPE svg PUBLIC "-//W3C//DTD SVG 1.0//EN" "http://www.w3.org/TR/2001/PR-SVG-20010719/DTD/svg10.dtd">
<svg width="25cm" height="15cm" viewBox="144 160 486 285" xmlns="http://www.w3.org/2000/svg" xmlns:xlink="http://www.w3.org/1999/xlink">
  <g>
    <rect style="fill: #ffffff" x="145" y="173" width="56.8" height="28"/>
    <rect style="fill: none; fill-opacity:0; stroke-width: 2; stroke: #000000" x="145" y="173" width="56.8" height="28"/>
    <text font-size="16" style="fill: #000000;text-anchor:middle;font-family:sans-serif;font-style:normal;font-weight:700" x="173.4" y="193">Client</text>
    <rect style="fill: #ffffff" x="145" y="201" width="56.8" height="8"/>
    <rect style="fill: none; fill-opacity:0; stroke-width: 2; stroke: #000000" x="145" y="201" width="56.8" height="8"/>
    <rect style="fill: #ffffff" x="145" y="209" width="56.8" height="8"/>
    <rect style="fill: none; fill-opacity:0; stroke-width: 2; stroke: #000000" x="145" y="209" width="56.8" height="8"/>
  </g>
  <g>
    <rect style="fill: #ffffff" x="342" y="174" width="71.6" height="28"/>
    <rect style="fill: none; fill-opacity:0; stroke-width: 2; stroke: #000000" x="342" y="174" width="71.6" height="28"/>
    <text font-size="16" style="fill: #000000;text-anchor:middle;font-family:sans-serif;font-style:normal;font-weight:700" x="377.8" y="194">Target</text>
    <rect style="fill: #ffffff" x="342" y="202" width="71.6" height="20"/>
    <rect style="fill: none; fill-opacity:0; stroke-width: 2; stroke: #000000" x="342" y="202" width="71.6" height="20"/>
    <text font-size="12.8" style="fill: #000000;text-anchor:start;font-family:monospace;font-style:normal;font-weight:normal" x="345" y="215.2">+Request</text>
    <rect style="fill: #ffffff" x="342" y="222" width="71.6" height="8"/>
    <rect style="fill: none; fill-opacity:0; stroke-width: 2; stroke: #000000" x="342" y="222" width="71.6" height="8"/>
  </g>
  <g>
    <rect style="fill: #ffffff" x="341" y="292" width="73.95" height="28"/>
    <rect style="fill: none; fill-opacity:0; stroke-width: 2; stroke: #000000" x="341" y="292" width="73.95" height="28"/>
    <text font-size="16" style="fill: #000000;text-anchor:middle;font-family:sans-serif;font-style:normal;font-weight:700" x="377.975" y="312">Adapter</text>
    <rect style="fill: #ffffff" x="341" y="320" width="73.95" height="20"/>
    <rect style="fill: none; fill-opacity:0; stroke-width: 2; stroke: #000000" x="341" y="320" width="73.95" height="20"/>
    <text font-size="12.8" style="fill: #000000;text-anchor:start;font-family:monospace;font-style:normal;font-weight:normal" x="344" y="333.2">+Request</text>
    <rect style="fill: #ffffff" x="341" y="340" width="73.95" height="8"/>
    <rect style="fill: none; fill-opacity:0; stroke-width: 2; stroke: #000000" x="341" y="340" width="73.95" height="8"/>
  </g>
  <g>
    <rect style="fill: #ffffff" x="495" y="292" width="133.2" height="28"/>
    <rect style="fill: none; fill-opacity:0; stroke-width: 2; stroke: #000000" x="495" y="292" width="133.2" height="28"/>
    <text font-size="16" style="fill: #000000;text-anchor:middle;font-family:sans-serif;font-style:normal;font-weight:700" x="561.6" y="312">Adaptee</text>
    <rect style="fill: #ffffff" x="495" y="320" width="133.2" height="20"/>
    <rect style="fill: none; fill-opacity:0; stroke-width: 2; stroke: #000000" x="495" y="320" width="133.2" height="20"/>
    <text font-size="12.8" style="fill: #000000;text-anchor:start;font-family:monospace;font-style:normal;font-weight:normal" x="498" y="333.2">+SpecificRequest</text>
    <rect style="fill: #ffffff" x="495" y="340" width="133.2" height="8"/>
    <rect style="fill: none; fill-opacity:0; stroke-width: 2; stroke: #000000" x="495" y="340" width="133.2" height="8"/>
  </g>
  <g>
    <polygon style="fill: #ffffff" points="273,410 471.5,410 483.5,422 483.5,444 273,444 "/>
    <polygon style="fill: none; fill-opacity:0; stroke-width: 2; stroke: #000000" points="273,410 471.5,410 483.5,422 483.5,444 273,444 "/>
    <polyline style="fill: none; fill-opacity:0; stroke-width: 1; stroke: #000000" points="471.5,410 471.5,422 483.5,422 "/>
    <text font-size="12.7998" style="fill: #000000;text-anchor:start;font-family:monospace;font-style:normal;font-weight:normal" x="280" y="433.65">
      <tspan x="280" y="433.65">adaptee.SpecificRequest()</tspan>
    </text>
  </g>
  <g>
    <polyline style="fill: none; fill-opacity:0; stroke-width: 2; stroke: #000000" points="377.8,248.236 377.8,262 377.975,262 377.975,292 "/>
    <polygon style="fill: #ffffff" points="385.8,248.236 377.8,232.236 369.8,248.236 "/>
    <polygon style="fill: none; fill-opacity:0; stroke-width: 2; stroke: #000000" points="385.8,248.236 377.8,232.236 369.8,248.236 "/>
  </g>
  <g>
    <line style="fill: none; fill-opacity:0; stroke-width: 2; stroke: #000000" x1="414.95" y1="306" x2="484" y2="306"/>
    <polygon style="fill: #000000" points="484,311 494,306 484,301 "/>
    <polygon style="fill: none; fill-opacity:0; stroke-width: 2; stroke: #000000" points="484,311 494,306 484,301 "/>
  </g>
  <text font-size="12.7998" style="fill: #000000;text-anchor:start;font-family:sans-serif;font-style:normal;font-weight:normal" x="425" y="297">
    <tspan x="425" y="297">adaptee</tspan>
  </text>
  <text font-size="12.7998" style="fill: #000000;text-anchor:start;font-family:sans-serif;font-style:normal;font-weight:normal" x="458" y="294">
    <tspan x="458" y="294"></tspan>
  </text>
  <text font-size="12.7998" style="fill: #000000;text-anchor:start;font-family:sans-serif;font-style:normal;font-weight:normal" x="216" y="174">
    <tspan x="216" y="174">target</tspan>
  </text>
  <text font-size="12.7998" style="fill: #000000;text-anchor:start;font-family:sans-serif;font-style:normal;font-weight:normal" x="378.25" y="427">
    <tspan x="378.25" y="427"></tspan>
  </text>
  <line style="fill: none; fill-opacity:0; stroke-width: 2; stroke-dasharray: 4; stroke: #000000" x1="377.975" y1="348" x2="378.25" y2="410"/>
  <g>
    <line style="fill: none; fill-opacity:0; stroke-width: 2; stroke: #000000" x1="201.8" y1="187" x2="337.528" y2="187.968"/>
    <polyline style="fill: none; fill-opacity:0; stroke-width: 2; stroke: #000000" points="329.729,192.913 339.764,187.984 329.8,182.913 "/>
  </g>
</svg>
