<?xml version="1.0" encoding="UTF-8" standalone="no"?>
<!DOCTYPE svg PUBLIC "-//W3C//DTD SVG 1.0//EN" "http://www.w3.org/TR/2001/PR-SVG-20010719/DTD/svg10.dtd">
<svg width="27cm" height="15cm" viewBox="144 160 530 286" xmlns="http://www.w3.org/2000/svg" xmlns:xlink="http://www.w3.org/1999/xlink">
  <g>
    <rect style="fill: #ffffff" x="145" y="173" width="56.8" height="28"/>
    <rect style="fill: none; fill-opacity:0; stroke-width: 2; stroke: #000000" x="145" y="173" width="56.8" height="28"/>
    <text font-size="16" style="fill: #000000;text-anchor:middle;font-family:sans-serif;font-style:normal;font-weight:700" x="173.4" y="193">Client</text>
    <rect style="fill: #ffffff" x="145" y="201" width="56.8" height="8"/>
    <rect style="fill: none; fill-opacity:0; stroke-width: 2; stroke: #000000" x="145" y="201" width="56.8" height="8"/>
    <rect style="fill: #ffffff" x="145" y="209" width="56.8" height="8"/>
    <rect style="fill: none; fill-opacity:0; stroke-width: 2; stroke: #000000" x="145" y="209" width="56.8" height="8"/>
  </g>
  <g>
    <rect style="fill: #ffffff" x="341" y="174" width="87" height="28"/>
    <rect style="fill: none; fill-opacity:0; stroke-width: 2; stroke: #000000" x="341" y="174" width="87" height="28"/>
    <text font-size="16" style="fill: #000000;text-anchor:middle;font-family:sans-serif;font-style:normal;font-weight:700" x="384.5" y="194">Target</text>
    <rect style="fill: #ffffff" x="341" y="202" width="87" height="8"/>
    <rect style="fill: none; fill-opacity:0; stroke-width: 2; stroke: #000000" x="341" y="202" width="87" height="8"/>
    <rect style="fill: #ffffff" x="341" y="210" width="87" height="20"/>
    <rect style="fill: none; fill-opacity:0; stroke-width: 2; stroke: #000000" x="341" y="210" width="87" height="20"/>
    <text font-size="12.8" style="fill: #000000;text-anchor:start;font-family:monospace;font-style:normal;font-weight:normal" x="344" y="223.2">+Request()</text>
  </g>
  <g>
    <rect style="fill: #ffffff" x="341" y="292" width="87" height="28"/>
    <rect style="fill: none; fill-opacity:0; stroke-width: 2; stroke: #000000" x="341" y="292" width="87" height="28"/>
    <text font-size="16" style="fill: #000000;text-anchor:middle;font-family:sans-serif;font-style:normal;font-weight:700" x="384.5" y="312">Adapter</text>
    <rect style="fill: #ffffff" x="341" y="320" width="87" height="8"/>
    <rect style="fill: none; fill-opacity:0; stroke-width: 2; stroke: #000000" x="341" y="320" width="87" height="8"/>
    <rect style="fill: #ffffff" x="341" y="328" width="87" height="20"/>
    <rect style="fill: none; fill-opacity:0; stroke-width: 2; stroke: #000000" x="341" y="328" width="87" height="20"/>
    <text font-size="12.8" style="fill: #000000;text-anchor:start;font-family:monospace;font-style:normal;font-weight:normal" x="344" y="341.2">+Request()</text>
  </g>
  <g>
    <rect style="fill: #ffffff" x="524" y="292" width="148.6" height="28"/>
    <rect style="fill: none; fill-opacity:0; stroke-width: 2; stroke: #000000" x="524" y="292" width="148.6" height="28"/>
    <text font-size="16" style="fill: #000000;text-anchor:middle;font-family:sans-serif;font-style:normal;font-weight:700" x="598.3" y="312">Adaptee</text>
    <rect style="fill: #ffffff" x="524" y="320" width="148.6" height="8"/>
    <rect style="fill: none; fill-opacity:0; stroke-width: 2; stroke: #000000" x="524" y="320" width="148.6" height="8"/>
    <rect style="fill: #ffffff" x="524" y="328" width="148.6" height="20"/>
    <rect style="fill: none; fill-opacity:0; stroke-width: 2; stroke: #000000" x="524" y="328" width="148.6" height="20"/>
    <text font-size="12.8" style="fill: #000000;text-anchor:start;font-family:monospace;font-style:normal;font-weight:normal" x="527" y="341.2">+SpecificRequest()</text>
  </g>
  <g>
    <polygon style="fill: #ffffff" points="280,411 478.5,411 490.5,423 490.5,445 280,445 "/>
    <polygon style="fill: none; fill-opacity:0; stroke-width: 2; stroke: #000000" points="280,411 478.5,411 490.5,423 490.5,445 280,445 "/>
    <polyline style="fill: none; fill-opacity:0; stroke-width: 1; stroke: #000000" points="478.5,411 478.5,423 490.5,423 "/>
    <text font-size="12.7998" style="fill: #000000;text-anchor:start;font-family:monospace;font-style:normal;font-weight:normal" x="287" y="434.65">
      <tspan x="287" y="434.65">adaptee.SpecificRequest()</tspan>
    </text>
  </g>
  <g>
    <polyline style="fill: none; fill-opacity:0; stroke-width: 2; stroke: #000000" points="384.5,248.236 384.5,262 384.5,262 384.5,292 "/>
    <polygon style="fill: #ffffff" points="392.5,248.236 384.5,232.236 376.5,248.236 "/>
    <polygon style="fill: none; fill-opacity:0; stroke-width: 2; stroke: #000000" points="392.5,248.236 384.5,232.236 376.5,248.236 "/>
  </g>
  <g>
    <line style="fill: none; fill-opacity:0; stroke-width: 2; stroke: #000000" x1="428" y1="306" x2="513" y2="306"/>
    <polygon style="fill: #000000" points="513,311 523,306 513,301 "/>
    <polygon style="fill: none; fill-opacity:0; stroke-width: 2; stroke: #000000" points="513,311 523,306 513,301 "/>
  </g>
  <text font-size="12.7998" style="fill: #000000;text-anchor:start;font-family:sans-serif;font-style:normal;font-weight:normal" x="440" y="296">
    <tspan x="440" y="296">adaptee</tspan>
  </text>
  <text font-size="12.7998" style="fill: #000000;text-anchor:start;font-family:sans-serif;font-style:normal;font-weight:normal" x="458" y="294">
    <tspan x="458" y="294"></tspan>
  </text>
  <text font-size="12.7998" style="fill: #000000;text-anchor:start;font-family:sans-serif;font-style:normal;font-weight:normal" x="216" y="174">
    <tspan x="216" y="174">target</tspan>
  </text>
  <text font-size="12.7998" style="fill: #000000;text-anchor:start;font-family:sans-serif;font-style:normal;font-weight:normal" x="385.25" y="428">
    <tspan x="385.25" y="428"></tspan>
  </text>
  <line style="fill: none; fill-opacity:0; stroke-width: 2; stroke-dasharray: 4; stroke: #000000" x1="384.5" y1="348" x2="385.25" y2="411"/>
  <g>
    <line style="fill: none; fill-opacity:0; stroke-width: 2; stroke: #000000" x1="201.8" y1="187" x2="336.528" y2="187.968"/>
    <polyline style="fill: none; fill-opacity:0; stroke-width: 2; stroke: #000000" points="328.728,192.912 338.764,187.984 328.8,182.912 "/>
  </g>
</svg>
