<?xml version="1.0" encoding="UTF-8" standalone="no"?>
<!DOCTYPE svg PUBLIC "-//W3C//DTD SVG 1.0//EN" "http://www.w3.org/TR/2001/PR-SVG-20010719/DTD/svg10.dtd">
<svg width="31cm" height="12cm" viewBox="319 145 615 232" xmlns="http://www.w3.org/2000/svg" xmlns:xlink="http://www.w3.org/1999/xlink">
  <g>
    <rect style="fill: #ffffff" x="487.574" y="149" width="78.85" height="38"/>
    <rect style="fill: none; fill-opacity:0; stroke-width: 2; stroke: #000000" x="487.574" y="149" width="78.85" height="38"/>
    <text font-size="12.8" style="fill: #000000;text-anchor:middle;font-family:sans-serif;font-style:normal;font-weight:normal" x="526.999" y="172.8">
      <tspan x="526.999" y="172.8">List</tspan>
    </text>
  </g>
  <g>
    <rect style="fill: #ffffff" x="477.1" y="279" width="101.8" height="38"/>
    <rect style="fill: none; fill-opacity:0; stroke-width: 2; stroke: #000000" x="477.1" y="279" width="101.8" height="38"/>
    <text font-size="12.8" style="fill: #000000;text-anchor:middle;font-family:sans-serif;font-style:normal;font-weight:normal" x="528" y="302.8">
      <tspan x="528" y="302.8">objects[]</tspan>
    </text>
  </g>
  <g>
    <rect style="fill: #ffffff" x="617.75" y="279" width="56.5" height="38"/>
    <rect style="fill: none; fill-opacity:0; stroke-width: 2; stroke: #000000" x="617.75" y="279" width="56.5" height="38"/>
    <text font-size="12.8" style="fill: #000000;text-anchor:middle;font-family:sans-serif;font-style:normal;font-weight:normal" x="646" y="302.8">
      <tspan x="646" y="302.8">place</tspan>
    </text>
  </g>
  <text font-size="12.8" style="fill: #000000;text-anchor:start;font-family:sans-serif;font-style:normal;font-weight:normal" x="527" y="168">
    <tspan x="527" y="168"></tspan>
  </text>
  <text font-size="12.8" style="fill: #000000;text-anchor:start;font-family:sans-serif;font-style:normal;font-weight:normal" x="646" y="298">
    <tspan x="646" y="298"></tspan>
  </text>
  <g>
    <rect style="fill: #ffffff" x="825.85" y="146" width="106.3" height="38"/>
    <rect style="fill: none; fill-opacity:0; stroke-width: 2; stroke: #000000" x="825.85" y="146" width="106.3" height="38"/>
    <text font-size="12.8" style="fill: #000000;text-anchor:middle;font-family:sans-serif;font-style:normal;font-weight:normal" x="879" y="169.8">
      <tspan x="879" y="169.8">Position</tspan>
    </text>
  </g>
  <text font-size="12.8" style="fill: #000000;text-anchor:start;font-family:sans-serif;font-style:normal;font-weight:normal" x="646" y="298">
    <tspan x="646" y="298"></tspan>
  </text>
  <g>
    <polyline style="fill: none; fill-opacity:0; stroke-width: 2; stroke: #000000" points="546.7,187 547,237 646,239 646,269.264 "/>
    <polygon style="fill: #000000" points="646,276.764 641,266.764 646,269.264 651,266.764 "/>
    <polygon style="fill: none; fill-opacity:0; stroke-width: 2; stroke: #000000" points="646,276.764 641,266.764 646,269.264 651,266.764 "/>
  </g>
  <g>
    <rect style="fill: #ffffff" x="842.648" y="269" width="72.7" height="38"/>
    <rect style="fill: none; fill-opacity:0; stroke-width: 2; stroke: #000000" x="842.648" y="269" width="72.7" height="38"/>
    <text font-size="12.8" style="fill: #000000;text-anchor:middle;font-family:sans-serif;font-style:normal;font-weight:normal" x="878.998" y="292.8">
      <tspan x="878.998" y="292.8">position</tspan>
    </text>
  </g>
  <g>
    <line style="fill: none; fill-opacity:0; stroke-width: 2; stroke: #000000" x1="879" y1="184" x2="879" y2="259.264"/>
    <polygon style="fill: #000000" points="879,266.764 874,256.764 879,259.264 884,256.764 "/>
    <polygon style="fill: none; fill-opacity:0; stroke-width: 2; stroke: #000000" points="879,266.764 874,256.764 879,259.264 884,256.764 "/>
  </g>
  <g>
    <polyline style="fill: none; fill-opacity:0; stroke-width: 2; stroke: #000000" points="527,187 527.894,269.265 "/>
    <polygon style="fill: #000000" points="527.976,276.764 522.867,266.819 527.894,269.265 532.867,266.71 "/>
    <polygon style="fill: none; fill-opacity:0; stroke-width: 2; stroke: #000000" points="527.976,276.764 522.867,266.819 527.894,269.265 532.867,266.71 "/>
  </g>
  <text font-size="12.8" style="fill: #000000;text-anchor:start;font-family:sans-serif;font-style:normal;font-weight:normal" x="528" y="298">
    <tspan x="528" y="298"></tspan>
  </text>
  <g>
    <path style="fill: #ffffff" d="M 336.924 156 L 403.074,156 C 412.996,164 416.304,168 416.304,176 C 416.304,184 412.996,188 403.074,196 L 336.924,196 L 323.694,176 L 336.924,156z"/>
    <path style="fill: none; fill-opacity:0; stroke-width: 2; stroke: #000000" d="M 336.924 156 L 403.074,156 C 412.996,164 416.304,168 416.304,176 C 416.304,184 412.996,188 403.074,196 L 336.924,196 L 323.694,176 L 336.924,156"/>
    <text font-size="12.8" style="fill: #000000;text-anchor:middle;font-family:sans-serif;font-style:normal;font-weight:normal" x="369.999" y="180.8">
      <tspan x="369.999" y="180.8">arrange()</tspan>
    </text>
  </g>
  <g>
    <path style="fill: #ffffff" d="M 355.714 261 L 384.286,261 C 388.571,269 390,273 390,281 C 390,289 388.571,293 384.286,301 L 355.714,301 L 350,281 L 355.714,261z"/>
    <path style="fill: none; fill-opacity:0; stroke-width: 2; stroke: #000000" d="M 355.714 261 L 384.286,261 C 388.571,269 390,273 390,281 C 390,289 388.571,293 384.286,301 L 355.714,301 L 350,281 L 355.714,261"/>
    <text font-size="12.8" style="fill: #000000;text-anchor:middle;font-family:sans-serif;font-style:normal;font-weight:normal" x="370" y="285.8">
      <tspan x="370" y="285.8"></tspan>
    </text>
  </g>
  <g>
    <line style="fill: none; fill-opacity:0; stroke-width: 2; stroke: #000000" x1="370" y1="196" x2="370" y2="251.264"/>
    <polygon style="fill: #000000" points="370,258.764 365,248.764 370,251.264 375,248.764 "/>
    <polygon style="fill: none; fill-opacity:0; stroke-width: 2; stroke: #000000" points="370,258.764 365,248.764 370,251.264 375,248.764 "/>
  </g>
  <text font-size="12.8" style="fill: #000000;text-anchor:start;font-family:sans-serif;font-style:normal;font-weight:normal" x="528" y="298">
    <tspan x="528" y="298"></tspan>
  </text>
  <text font-size="12.8" style="fill: #000000;text-anchor:start;font-family:sans-serif;font-style:normal;font-weight:normal" x="528" y="298">
    <tspan x="528" y="298"></tspan>
  </text>
  <text font-size="12.8" style="fill: #000000;text-anchor:start;font-family:sans-serif;font-style:normal;font-weight:normal" x="526.998" y="168">
    <tspan x="526.998" y="168"></tspan>
  </text>
  <text font-size="12.8" style="fill: #000000;text-anchor:start;font-family:sans-serif;font-style:normal;font-weight:normal" x="319" y="374">
    <tspan x="319" y="374">@Author Cristofor Rotsching Jr.</tspan>
  </text>
  <text font-size="12.8" style="fill: #000000;text-anchor:start;font-family:sans-serif;font-style:normal;font-weight:normal" x="364" y="368">
    <tspan x="364" y="368"></tspan>
  </text>
  <g>
    <path style="fill: #ffffff" d="M 709.874 159 L 760.124,159 C 767.661,167 770.174,171 770.174,179 C 770.174,187 767.661,191 760.124,199 L 709.874,199 L 699.824,179 L 709.874,159z"/>
    <path style="fill: none; fill-opacity:0; stroke-width: 2; stroke: #000000" d="M 709.874 159 L 760.124,159 C 767.661,167 770.174,171 770.174,179 C 770.174,187 767.661,191 760.124,199 L 709.874,199 L 699.824,179 L 709.874,159"/>
    <text font-size="12.8" style="fill: #000000;text-anchor:middle;font-family:sans-serif;font-style:normal;font-weight:normal" x="734.999" y="183.8">
      <tspan x="734.999" y="183.8">start</tspan>
    </text>
  </g>
  <g>
    <path style="fill: #ffffff" d="M 718.2 292 L 751.8,292 C 756.84,300 758.52,304 758.52,312 C 758.52,320 756.84,324 751.8,332 L 718.2,332 L 711.48,312 L 718.2,292z"/>
    <path style="fill: none; fill-opacity:0; stroke-width: 2; stroke: #000000" d="M 718.2 292 L 751.8,292 C 756.84,300 758.52,304 758.52,312 C 758.52,320 756.84,324 751.8,332 L 718.2,332 L 711.48,312 L 718.2,292"/>
    <text font-size="12.8" style="fill: #000000;text-anchor:middle;font-family:sans-serif;font-style:normal;font-weight:normal" x="735" y="316.8">
      <tspan x="735" y="316.8">stop</tspan>
    </text>
  </g>
  <g>
    <line style="fill: none; fill-opacity:0; stroke-width: 2; stroke: #000000" x1="735" y1="199" x2="735" y2="282.264"/>
    <polygon style="fill: #000000" points="735,289.764 730,279.764 735,282.264 740,279.764 "/>
    <polygon style="fill: none; fill-opacity:0; stroke-width: 2; stroke: #000000" points="735,289.764 730,279.764 735,282.264 740,279.764 "/>
  </g>
  <text font-size="12.8" style="fill: #000000;text-anchor:start;font-family:sans-serif;font-style:normal;font-weight:normal" x="745.05" y="179">
    <tspan x="745.05" y="179"></tspan>
  </text>
  <text font-size="12.8" style="fill: #000000;text-anchor:start;font-family:sans-serif;font-style:normal;font-weight:normal" x="745.05" y="179">
    <tspan x="745.05" y="179"></tspan>
  </text>
  <text font-size="12.8" style="fill: #000000;text-anchor:start;font-family:sans-serif;font-style:normal;font-weight:normal" x="502" y="373">
    <tspan x="502" y="373"></tspan>
  </text>
</svg>
